<?xml version="1.0" encoding="utf-8"?>
<!-- Generator: Adobe Illustrator 24.0.2, SVG Export Plug-In . SVG Version: 6.00 Build 0)  -->
<svg version="1.1" id="Capa_1" xmlns="http://www.w3.org/2000/svg" xmlns:xlink="http://www.w3.org/1999/xlink" x="0px" y="0px"
	 viewBox="0 0 1000 1000" style="enable-background:new 0 0 1000 1000;" xml:space="preserve">
<style type="text/css">
	.st0{fill:#151514;}
	.st1{fill:#FFFFFF;}
	.st2{fill:#CF0810;}
</style>
<g>
	<path class="st0" d="M656.4,589.6c-6.1,4.4-12.3,8.8-18.5,13.2l141.5-16.2L773.3,845l-530.5,26.8l-1-147.7
		c-4.2-18.5-1.5-38.3,8.1-58.8c8.4-18,20.8-36.9,36.7-56.1c9-10.8,18.9-21.8,29.7-32.8l47.8-45.2c0,0,0,0,0.1,0l7.4-6.7h0
		c0.3-0.2,0.5-0.5,0.8-0.7h-0.6l52.5-45.5c0.1-0.1,0.2-0.1,0.2-0.2l0.6-0.5c11.7-10.1,23.3-20.1,34.5-29.8
		c18.3-15.8,34.7-30.6,48.5-44.1c8.8-8.6,15.9-16.5,21.3-23.5c-16,4.4-34.3,12.1-54.2,22.9c-21.4,11.6-43.4,25.3-65.3,40.8
		c-21.9,15.5-40.6,30.1-55.4,43.4l-21.9,19.7L194.9,308.4l16.2-15.3c51.5-48.8,100.6-86.1,146-111c45.9-25.2,88.4-41.5,126.2-48.5
		c19.8-3.6,39.1-5.5,57.2-5.5c17,0,33.4,1.6,48.8,4.8c31.8,6.6,59.7,17.3,82.9,31.7c22.3,13.9,41.6,28.8,57.4,44.3
		c16.1,15.8,27.5,29.1,35.1,40.8c5.2,7.9,7.5,11.4,8.5,13l1.1,1.1l1.7,3.1c25.1,44.7,33.9,87.7,26.3,127.9
		c-7.3,38.4-24.6,74.5-51.5,107.4c-3.6,4.4-7.3,8.7-11,12.9c0,0-0.1,0.1-0.1,0.1l-7.7,8.7H732c-15.2,16.3-32.3,32-50.8,47l-7.1,5.7
		h-0.1C668.3,580.9,662.4,585.3,656.4,589.6z"/>
	<path class="st1" d="M752.7,615.8l-4.8,204.5l-479.3,24.2l-0.8-123.7c-3.8-13.5-1.9-28.3,5.7-44.5c7.5-16.2,18.6-33,33.1-50.5
		c14.6-17.5,31.5-35.3,50.9-53.4c8-7.4,16-14.7,24.1-22.1H486c10,23.3,33.2,39.7,60.2,39.7c27,0,50.2-16.3,60.2-39.7h58.4
		c-7.6,6.1-15.5,12.1-23.7,18.1c-35.6,25.6-71.4,49.7-107.5,72.3L752.7,615.8z"/>
	<path class="st2" d="M776.9,389.9c-6.5,34.2-21.8,66.1-46.1,95.8c-3.3,4.1-6.8,8.1-10.3,12.1H606.1c-10.3-22.8-33.2-38.8-59.9-38.8
		c-26.6,0-49.6,15.9-59.8,38.8h-44.8c11.9-10.3,23.6-20.4,35.1-30.3c19.1-16.4,35.7-31.5,49.7-45.2c14-13.7,24.4-26,31.1-36.8
		c6.7-10.8,8-19.1,3.6-25.1c-6.5-8.6-18.9-10.5-37.2-5.7c-18.3,4.9-38.6,13.3-61,25.5c-22.4,12.1-45,26.2-67.9,42.4
		c-22.9,16.2-42.2,31.3-57.8,45.3L229,311.9c50.1-47.4,97-83.1,140.6-107.1c43.6-24,83.1-39.2,118.4-45.7
		c35.3-6.5,67.3-6.7,96.2-0.8c28.8,6,53.6,15.4,74.4,28.3c20.7,12.9,38.4,26.5,52.9,40.8c14.6,14.3,25.1,26.4,31.5,36.4
		c6.5,10,10,15.2,10.5,15.7C775.6,318.9,783.4,355.7,776.9,389.9z"/>
	<path class="st1" d="M591.3,524.6c0,24.9-20.2,45.1-45.1,45.1c-24.9,0-45.1-20.2-45.1-45.1c0-24.9,20.2-45.1,45.1-45.1
		C571.1,479.5,591.3,499.6,591.3,524.6z"/>
</g>
</svg>
