<svg width="256px" height="256px" viewBox="0 0 20.00 20.00" xmlns="http://www.w3.org/2000/svg" fill="#000000" stroke="#000000"><g id="SVGRepo_bgCarrier" stroke-width="0" transform="translate(0.9000000000000004,0.9000000000000004), scale(0.91)"><rect x="0" y="0" width="20.00" height="20.00" rx="10" fill="#E6E9ED" strokewidth="0"></rect></g><g id="SVGRepo_tracerCarrier" stroke-linecap="round" stroke-linejoin="round" stroke="#CCCCCC" stroke-width="0.04"></g><g id="SVGRepo_iconCarrier"> <g id="user-circle-2" transform="translate(-2 -2)"> <path id="secondary" fill="#ED5564" d="M12,3A9,9,0,0,0,5.55,18.27a7,7,0,0,1,4.28-3.92h0a4,4,0,1,1,4.34,0h0a7,7,0,0,1,4.28,3.92A9,9,0,0,0,12,3Z"></path> <path id="primary" d="M16,11a4,4,0,1,1-4-4A4,4,0,0,1,16,11Zm-1.83,3.35a3.95,3.95,0,0,1-4.34,0,7,7,0,0,0-4.28,3.92,9,9,0,0,0,12.81.09l.09-.09a7,7,0,0,0-4.28-3.92ZM21,12h0a9,9,0,0,0-9-9h0a9,9,0,0,0-9,9H3a9,9,0,0,0,9,9h0a9,9,0,0,0,9-9Z" fill="none" stroke="#000000" stroke-linecap="round" stroke-linejoin="round" stroke-width="1.02"></path> </g> </g></svg>