<?xml version="1.0" encoding="utf-8"?>
<!-- Generator: Adobe Illustrator 21.0.0, SVG Export Plug-In . SVG Version: 6.00 Build 0)  -->
<svg version="1.1" id="Layer_1" xmlns="http://www.w3.org/2000/svg" xmlns:xlink="http://www.w3.org/1999/xlink" x="0px" y="0px"
	 viewBox="0 0 720 720" style="enable-background:new 0 0 720 720;" xml:space="preserve">
<style type="text/css">
	.st0{fill:#3D3B42;}
	.st1{fill:#D14E35;}
	.st2{fill:#3162AC;}
	.st3{fill:#6DA6D4;}
	.st4{fill:#194B8D;}
	.st5{fill:#46474E;}
	.st6{fill:#2A484F;}
	.st7{fill:#2E2D30;}
	.st8{fill:#4C80AD;}
	.st9{fill:#F0A966;}
	.st10{fill:#9B653E;}
	.st11{fill:#C6642A;}
	.st12{fill:#FFFFFF;}
	.st13{fill:#562515;}
	.st14{fill:#DD1A59;}
</style>
<path class="st0" d="M466.4,168.4c-2.3,0.3-4.4-0.1-6.4-0.6c-9-2.2-18-4.4-27-6.5c-4.9-1.2-9.8-2.3-14.7-3.2
	c-5.5-1.1-10.7-2.7-15.9-4.6c-14-5.4-28.4-9.6-43.1-12.6c-7.9-1.7-15.9-2.7-23.9-3.5c-8.5-0.9-17-1.4-25.6-1
	c-13.7,0.6-27.3,1.9-40.6,5.4c-8.1,2.1-16,4.9-23.4,8.8c-5.4,2.8-10.3,6.2-14.8,10.4c-1.4,1.4-3,2.2-5,2.6c-5,1.1-10,2.4-14.9,3.7
	c-0.9,0.2-1.8,0.6-2.5-0.3c-0.8-0.9-0.6-1.9-0.1-2.8c0.3-0.6,0.7-1.2,1-1.8c7.7-12.5,17.9-22.1,31-28.7c9.3-4.7,19.1-8,29.2-10.4
	c11-2.6,22.1-4.4,33.3-5.5c7.5-0.7,15.1-0.8,22.6-0.4c6.4,0.3,12.9,0.5,19.3,1.1c10.9,1,21.8,2.7,32.5,5.1
	c27.3,6.2,52.9,16.6,76.8,31.3c5.2,3.2,9,7.6,12.1,12.8C466.4,167.6,466.4,167.8,466.4,168.4z"/>
<path class="st1" d="M287.6,117.2c-3.1,0.5-5.7,1-8.3,1.4c-2.5,0.4-5,0.9-7.4,1.4c-2.5,0.6-5.1,1.2-7.6,1.8c-2.5,0.7-5,1.4-7.5,2.3
	c-2.4,0.8-4.7,1.7-7.1,2.6c-2.4,0.8-4.6,2.4-7.4,2.9c-0.1-0.7-0.1-1.1-0.1-1.6c0-4,0-8.1,0-12.1c0.1-10.9,0.1-21.7,0.2-32.6
	c0.1-9.3,0.4-18.5,0.6-27.8c0-0.8-0.1-1.6-0.1-2.4c-0.1-3.1,0.9-5.7,3.1-7.9c1-1,2.1-1.9,3.3-2.6c12.6-8,25.5-15.4,39.3-21.2
	c12-5.1,24.5-8.4,37.5-10c9.7-1.2,19.5-1.3,29.2-0.4c15.6,1.4,30.5,5.4,44.8,11.4c8.5,3.6,17,7.4,25.4,11.1c0.3,0.1,0.5,0.3,0.8,0.4
	c2.6,0.9,3.8,2.5,3.7,5.4c-0.1,1.9,0.5,3.8,0.7,5.7c0.8,6.7,1.6,13.4,2.2,20.1c0.6,7.2,1.2,14.4,1.5,21.7c0.3,7.4,0.5,14.9,0.5,22.3
	c-0.1,9.4-0.5,18.7-0.7,28.1c0,0.9-0.1,1.8-0.2,2.6c-0.9,0.5-1.5,0-2.1-0.2c-3.3-1.4-6.6-2.9-10-4.3c-13-5.6-26.3-9.9-40-13.4
	c-1.3-0.3-2.5-0.6-3.8-0.9c-0.1,0-0.1-0.1-0.3-0.3c0.2-0.4,0.4-0.8,0.7-1.2c3.6-4.4,6.4-9.2,9-14.3c1.3-2.6,2.6-5.2,3.9-7.8
	c0.3-0.6,0.6-1.3,0.8-2c0.2-0.8,0-1.6-0.8-2.1c-0.6-0.4-1.2-0.8-1.8-1.1c-2.7-1.6-5.4-3.1-8.1-4.7c-0.4-0.2-0.7-0.4-1.1-0.6
	c-1.4-0.6-2.6-0.3-3.4,1c-1.2,2-2.3,4-3.4,6c-0.3,0.5-0.5,1.1-0.8,1.6c-1.5,3-3.9,4.8-7.1,5.5c-1.2,0.3-2.4,0.4-3.6,0.6
	c-15.5,1.4-30.9,2-46.4,1.2c-3.7-0.2-7.4-0.7-11.1-0.9c-2-0.1-3.4-1-4.7-2.4c-2.9-3.3-5.9-6.6-8.9-9.9c-0.3-0.3-0.5-0.6-0.8-0.9
	c-2.4-2.6-3.2-2.7-6.1-0.5c-2.3,1.8-4.7,3.5-7,5.2c-0.6,0.4-1.2,0.8-1.7,1.3c-1.2,1.1-1.4,2.1-0.5,3.5c3.6,5.7,6.8,11.7,11.2,16.8
	C286.5,115.6,287,116.2,287.6,117.2z M388.5,64.9c-0.5-0.9-0.9-1.8-1.5-2.6c-4.4-6.9-8.8-13.7-13.2-20.6c-0.3-0.5-0.6-1-1-1.5
	c-0.8-1.1-2-1.7-3.4-1.8c-0.7,0-1.4,0-2.1,0c-5.8,0-11.7,0-17.5,0c-6.6,0-13.3-0.1-19.9,0.3c-12.6,0.6-25.1,1.5-37.7,2.2
	c-2.5,0.1-4.3,1.1-5.7,3.2c-4.2,6.2-8.5,12.2-12.8,18.3c-0.4,0.6-0.8,1.2-1.1,1.8c-0.6,1.2-0.4,2.4,0.7,3.2c0.5,0.4,1.1,0.8,1.8,1.2
	c3.5,2.2,7,4.4,10.4,6.6c0.5,0.3,1,0.7,1.6,0.9c1.2,0.5,2.1,0.4,3-0.6c0.5-0.6,1-1.3,1.4-1.9c2.6-3.9,5.3-7.9,7.8-11.9
	c1.1-1.7,2.5-2.8,4.6-3c0.3,0,0.6-0.1,0.9-0.2c10.4-1.7,20.9-2.9,31.5-3.2c3-0.1,6-0.3,9-0.2c4.6,0,9.3,0.2,13.9,0.3
	c2,0,3.5,0.8,4.5,2.6c0.1,0.2,0.2,0.3,0.3,0.5c2.6,4.1,5.2,8.2,7.8,12.2c0.4,0.7,0.9,1.4,1.4,2c0.7,0.9,1.6,1.1,2.7,0.7
	c0.5-0.2,0.9-0.5,1.3-0.7c2.9-1.6,5.8-3.2,8.7-4.8c0.6-0.3,1.3-0.7,1.8-1.2C388,66.2,388.1,65.6,388.5,64.9z M472.5,168.6
	c-0.9,0.6-1.9,0.5-2.6-0.4c-0.5-0.5-0.8-1.1-1.2-1.8c-3.7-6.6-9-11.6-15.5-15.3c-5.1-2.9-10.2-5.6-15.3-8.5
	c-0.4-0.2-0.8-0.5-1.4-0.9c0-1.6-0.2-3.2-0.1-4.8c0.8-14.6,1.1-29.2,0.7-43.8c-0.2-7.3-0.9-14.7-1.4-22c-0.4-5.1-0.8-10.2-1.4-15.3
	c-0.6-5.8-1.4-11.6-2.1-17.4c0-0.4-0.1-0.8-0.1-1.2c0.4,0,0.7-0.2,0.9-0.1c7.5,3.8,14.6,8.1,20.5,14.2c7.9,8.2,12.7,18,15.1,29.1
	c1,4.4,1.5,8.9,1.8,13.4c0.5,7.2,1.2,14.4,1.5,21.7c0.4,8.8,0.7,17.7,0.9,26.5c0.1,8.6-0.1,17.1-0.1,25.7
	C472.7,168.2,472.6,168.3,472.5,168.6z M241,48.9c-0.1,3.8-0.2,6.9-0.3,10c-0.2,6-0.4,12.1-0.5,18.1c-0.1,16.7-0.1,33.4-0.2,50.1
	c0,0.6,0,1.2-0.1,1.8c-0.1,1.5-0.8,2.7-2.1,3.4c-0.3,0.2-0.7,0.4-1,0.6c-5.3,2.8-10.2,6-14.7,9.9c-0.3,0.2-0.6,0.4-0.9,0.5
	c-0.2-0.2-0.3-0.3-0.3-0.4c-0.1-1.8-0.2-3.6-0.2-5.4c-0.1-12.2,0.1-24.3,0.6-36.5c0.3-8,0.8-16.1,1.6-24.1c0.9-9.2,4.9-16.9,12-22.9
	c1.4-1.2,2.8-2.6,4.3-3.8C239.5,49.9,240,49.6,241,48.9z"/>
<path class="st2" d="M394,597.6c-0.9,0-2.1,0.1-3.3,0.1c-14.1,0.1-28.2,0-42.3-0.8c-11.5-0.7-23.1-1.4-34.6-2.1
	c-5-0.3-10-0.5-15.1-0.8c-8.7-0.5-17.5-1.3-26.1-2.9c-0.4-0.1-0.8-0.1-1.2-0.2c-1.6-0.3-2.8-1-2.9-2.9c-0.1-1.2-0.6-2.3-1.4-3.3
	c-1.3-1.5-1.8-3.4-1.9-5.3c-0.1-0.9-0.1-1.8-0.1-2.7c0-4.4,0-8.8-0.1-13.3c0-4,1.4-7.3,4.2-10c1.2-1.1,2.5-1.5,4.1-1.4
	c8.9,0.7,17.9,0.7,26.9,0.5c1.3,0,2.6,0,3.9,0c0.5,0,1,0,1.5-0.2c0.9-0.2,1.3-1.5,0.7-2.2c-0.4-0.4-0.9-0.8-1.4-1.1
	c-6.1-3.7-10.3-8.9-12.8-15.6c-3.2-8.8-4-17.8-2.3-27c1.3-7,4.6-13,9.6-18.2c0.6-0.6,1.3-1.3,1.8-2s0.3-1.8-0.5-2.1
	c-0.8-0.3-1.7-0.5-2.6-0.6c-6.4-0.3-12.9-0.5-19.3-0.8c-1.3,0-2.6-0.2-3.9-0.4c-0.6-0.1-1.2-0.3-1.7-0.6c-1-0.5-1.4-1.5-0.9-2.5
	c0.3-0.6,0.7-1.2,1.1-1.8c1.3-1.8,2.6-3.6,3.9-5.4c2.4-3,3-6.4,1.4-9.9c-1.7-3.7-4.8-5.6-8.8-6c-3-0.3-6.1-0.1-8.8,1.4
	c-1.4,0.7-2.5,0.7-3.5-0.5c-3.3-1.2-4.1-3.8-4.1-7c0.2-18.3,1.6-36.4,5.3-54.3c0.2-1.1,0.5-2.1,0.9-3.2c0.2-0.6,0.5-1.1,0.9-1.6
	c6.9-1.3,13.4-3.7,20.4-4.7c0.8,0.7,1.5,1.4,2.2,2c5.3,5,10.6,9.9,16.3,14.4c2.5,1.9,5,3.7,7.5,5.5c0.8,0.6,1.6,0.8,2.5,0.1
	c0.1-0.1,0.1-0.3,0.3-0.7c-1.1-1.1-2.5-1.8-3.8-2.8c-1.4-1.1-2.7-2.1-4.1-3.1c-1.3-1-2.5-2-3.7-3.1c-1.3-1.1-2.6-2.2-3.9-3.4
	c-1.2-1.1-2.4-2.2-3.6-3.2c-1.3-1.2-2.5-2.3-3.8-3.5c-1.1-1.1-2.5-2-3.5-3.5c0.5-0.6,0.9-1.2,1.4-1.6c5.6-4,11.8-6.9,18.8-8.1
	c2.9,2.2,5.8,4.3,8.6,6.5c1.4,1,2.7,2.1,4,3.2c6.7,5.1,14.3,6.8,22.5,5.5c3.6-0.5,7.1-1.3,10.5-1.9c6.3,4.4,11.3,9.9,16.7,15.4
	c-0.5,0.3-0.9,0.7-1.3,0.8c-4.6,1.2-9.1,2.3-13.7,3.6c-3.5,0.9-7,2-10.4,3c-0.6,0.2-1.2,0.6-1.7,1.2c2-0.2,4-0.4,6-0.7
	c4.2-0.6,8.3-1.4,12.4-2.6c3.5-1,7-1.7,10.6-2.6c1,1,1.9,1.9,2.8,2.9c9.9,11.1,19.8,22.3,29.7,33.4c1.3,1.4,2.5,2.9,3.8,4.3
	c0.6,0.8,1.4,1.5,1.5,2.5c-1.6,2.1-2.3,2.5-4.5,1.8c-0.5-0.1-1-0.3-1.4-0.5c-3.9-1.1-7.6,0.5-9.3,4.1c-0.5,1.1-0.8,2.3-1,3.5
	c-0.6,5-0.4,10,1.7,14.8c1,2.1,1.6,4.3,2.4,6.5c0.4,1,0.2,1.8-0.4,2.5c-1.1,1.4-2.4,2-4.2,2c-5.6,0.1-11.3,0.3-16.9,0.3
	c-4.4,0-8.9-0.3-13.3-0.4c-0.8,0-1.6,0-2.4,0.1c-1.4,0.2-2,1.5-1.2,2.7c0.3,0.4,0.6,0.8,0.9,1.2c5.7,7.3,8.6,15.6,9.2,24.8
	c0.6,8.8-1,17-5.5,24.6c-2.1,3.5-4.6,6.6-7.5,9.4c-0.6,0.5-1.2,1.1-1.7,1.7c-0.8,1-0.2,2.3,1.1,2.5c0.3,0,0.6,0.1,0.9,0.1
	c10.1,0.3,20.1,0.6,30.2,0.8c2.2,0,4.4-0.1,6.6-0.2c0.5,0,1,0,1.5,0c1.9,0.1,2.5,0.6,2.7,2.5c0.2,2.2,0.3,4.4,0.4,6.6
	c0.3,4.9,1.3,9.8,2.8,14.5c0.4,1.4,0.5,2.5-0.5,3.7c-1.1,1.4-1.3,3.2-1.4,4.9c-0.1,3.3-0.2,6.6-0.3,10
	C394.9,595.5,395.1,596.6,394,597.6z M253.7,646c3.4,0.7,6.5,1.4,9.5,1.9c6.6,1,13.3,2.1,20,3c7.8,1,15.6,1.9,23.4,2.8
	c8.3,0.9,16.6,1.8,24.9,2.7c8.1,0.8,16.2,1.5,24.4,2.2c3.5,0.3,7,0.5,10.5,0.6c10.7,0.4,21.3,0.7,32,0.9c7.5,0.1,15.1,0,22.6-0.1
	c3.2,0,3.2,0,4.4,3c3.1,7.9,7,15.4,11,22.8c1.6,3,3.1,6.1,4.8,9.1c1.3,2.3,2.9,4.4,4.3,6.5c0.8,1.2,1.9,2.3,2.5,3.8
	c-1.4,0.8-2.9,1.1-4.4,1.2c-6.9,0.8-13.8,1.6-20.7,2.3c-1.8,0.2-3.6,0.1-5.4,0.1c-10,0-19.9,0-29.9-0.1c-5.6-0.1-11.3-0.4-16.9-0.7
	s-9.5-0.6-13.9-0.9c-26.7-1.9-26-1.6-33.4-2.3c-8.5-0.8-14.5-1.7-23.9-3.2c-9.9-1.6-19.8-3.4-29.7-5.2c-7.6-1.4-15.2-2.9-22.6-5.1
	c-2.5-0.7-4.9-1.7-7.4-2.5c-1.1-0.3-2.1-0.7-3.2-0.9c-1.6-0.4-3.2-1-4.6-1.7c-0.4-1.3,0.2-2.2,0.6-3.1c2.7-5.9,5.7-11.5,9.1-17
	c3.3-5.4,6.6-10.8,9.8-16.3C252.2,648.6,252.9,647.4,253.7,646z M466.9,498.1c0-0.6,0-1,0-1.5c0.3-2.7,0.6-5.4,1-8.1
	c0.3-2.9,0.2-5.6-1.2-8.2c-0.6-1-0.5-1.8,0-2.8c3.8-8.1,8.1-16,13.4-23.3c1.9-2.6,3.9-5.1,5.8-7.7c0.5-0.7,1-1.4,1.5-2
	c-0.1-0.4-0.1-0.7-0.2-0.8c-1.4-1.1-1.8-2.6-2.1-4.2c-0.6-3.1-1.2-6.1-1.8-9.2c-1.2-7-0.6-14,0.8-21c1-5.1,2.5-10.1,4.1-15.1
	c0.3-0.8,0.4-1.8,1.6-2.4c0.8,0.4,1.7,0.8,2.5,1.2c10.7,6,17.4,15,20.6,26.7c1.2,4.7,2.2,9.4,3.3,14.1c3.8,16.3,8.4,32.3,13.2,48.3
	c0.3,1,0.6,1.9,0.8,2.9c0,0.2,0,0.4,0,0.6c-0.5,0.9-1.5,0.9-2.3,1.2c-9.5,3.1-19.1,5.6-28.9,7.5c-7.4,1.5-14.9,2.6-22.4,3.5
	c-2.9,0.3-5.8,0.4-8.7,0.6C467.6,498.4,467.5,498.3,466.9,498.1z M224.3,393.9c-0.3,1.3-0.4,2-0.6,2.6c-3.6,13-5.7,26.3-6.4,39.8
	c-0.2,4.3-0.4,8.6-0.4,13c0,2.1-0.4,3.9-1.5,5.7c-1.6,2.7-2.9,5.5-4.3,8.3c-1,2-2.2,3.9-3.2,5.8c-0.6,1.2-1.5,2.1-2.8,2.5
	c-3.9,1.4-5.6,4.3-5.2,8.5c0.3,2.8,0.3,5.6,0.4,8.4c0,0.6,0,1.2,0,2c-0.8-0.2-1.4-0.2-1.9-0.5c-1.7-0.9-3.4-1.8-4.9-2.9
	c-1.9-1.4-3.5-3-5.4-4.4c-1.5-1.2-1.7-2.5-1.1-4.3c1.8-5.2,3.4-10.5,5.1-15.8c5.2-16.2,10.5-32.3,15.7-48.5c1-3.1,2.2-6,3.9-8.8
	c2.6-4.4,6.1-8,10.6-10.5C222.6,394.6,223.2,394.4,224.3,393.9z"/>
<path class="st3" d="M413.9,444.6c0.3-1.2,0.5-2.1,0.7-3.1c4.5-17.7,9.8-35,15.8-52.3c1.8-5.2,3.6-10.5,5.3-15.7
	c0.6-1.8,1.5-3.3,2.8-4.6c1.1-1.2,2.5-1.7,4.1-1.6c0.8,0.1,1.6,0.1,2.4,0.3c10.1,2.7,20.1,5.8,29.6,10.2c0.5,0.2,0.9,0.5,1.5,0.8
	c-0.3,0.6-0.4,1.1-0.8,1.6c-3.6,4.9-6.3,10.3-8.5,15.9c-6.9,17.4-12.8,35.2-18.1,53.1c-1,3.5-2,7-3.1,10.4c-0.2,0.6-0.5,1.3-0.8,1.9
	c-1.3,0-2-0.8-2.8-1.3c-6.5-4-13-8.1-19.5-12.1C420,446.5,417.4,444.7,413.9,444.6z M399.8,525.3c0.8,0.3,1.4,0.4,1.9,0.7
	c3.7,1.7,7,3.8,10.3,6.2c1.4,1,1.9,2.2,1.6,3.9c-0.7,4.2-0.7,8.4-0.5,12.6c0.2,3.6,0.5,7.2,1.1,10.8c1,6.3,3.9,11.6,8.7,15.8
	c1.1,1,1.8,2.1,2,3.6c0.8,5.9-0.5,11.4-2.8,16.7c-5.4,1.2-9.9-0.1-13.6-4.1c-3.5-3.8-6.1-8.2-8-13c-2-5-3.1-10.2-3.7-15.5
	c-1.3-10.5-0.3-20.9,1.5-31.2c0.3-1.7,0.6-3.4,1-5C399.3,526.4,399.5,526,399.8,525.3z M248.7,376c-0.3,0.6-0.5,1-0.7,1.3
	c-4.8,6.4-7.7,13.6-9.4,21.4c-1.3,5.9-2,11.9-2.5,17.9c-1,12-0.6,23.9-0.6,35.9c0,2.4,0,4.8,0,7.2c-1.7,1.3-11,5.5-15.5,6.9
	c-0.2-0.5-0.4-1.1-0.5-1.6c-0.1-2.4-0.2-4.8-0.3-7.2c-0.3-10.5,0.1-20.9,1.3-31.3c1.1-10.4,3.1-20.7,6-30.7c0.4-1.2,0.9-2.5,1.6-3.6
	c1.9-3.3,4.4-6,7.4-8.3c3.8-3,8-5.4,12.3-7.6C247.9,376,248.1,376.1,248.7,376z M246.2,601.1c-2.1-3.5-3.1-7.2-3.4-11.2
	c-0.4-4.9-0.1-9.8,0.3-14.8c0.7-7.9,1.5-15.8,2.3-23.7c0.1-1,0.3-2,0.4-3c0.3-1.9,1.5-3,3.2-3.7c0.4-0.2,0.8-0.2,1.2-0.3
	c3.4-0.8,6.8-1.7,10.3-2.5c0.5-0.1,1-0.2,1.3-0.3c1,0.7,0.9,1.7,0.9,2.5c0,4,0.1,8,0.1,12.1c0.1,9.9,0.1,19.7,0.2,29.6
	c0,1.9-0.1,3.8-0.6,5.7C260.3,598,253.1,602.8,246.2,601.1z"/>
<path class="st4" d="M475.8,699.5c-3.2-3.3-13.3-20.7-21.5-37c-1-2-2.3-4-2.8-6.4c0.5-0.2,0.9-0.5,1.2-0.5c5.6-1,11.3-1.9,16.9-2.9
	c0.5-0.1,1-0.1,1.5-0.1c1.1,0,1.6,0.4,1.9,1.5c0.2,0.7,0.3,1.4,0.4,2.1c0.4,4.9,0.9,9.8,1.2,14.7c0.5,8.4,1,16.8,1.4,25.3
	C476.1,697.3,476.3,698.4,475.8,699.5z"/>
<path class="st5" d="M398.7,581.1c1,1.8,1.8,3.2,2.6,4.5c1.1,1.8,2.1,3.7,3.4,5.3c4.2,5.5,9.8,8.2,16.8,7.4c0.5,0,1-0.1,1.5-0.1
	c2.6,0,4.7,1.4,5.5,3.8c0.4,1.3,0.6,2.7,0.7,4.1c0.2,3.8-0.3,7.6-0.8,11.4c-0.1,1.1-0.3,2.2-0.5,3.3c-0.5,4.5-4.8,7-8.7,6.2
	c-3.7-0.8-7.1-2-10.4-3.9c-2.7-1.6-5.1-3.5-7.4-5.6c-1.5-1.4-2.6-3.1-2.9-5.2c-1.4-10-2.3-20-0.6-30
	C398.1,582.2,398.3,581.9,398.7,581.1z M257,630c0.5,1.5-0.1,2.3-0.5,3.2c-1.4,2.9-2.7,5.8-4.3,8.6c-3.1,5.4-6.1,10.8-9.4,16.1
	c-5.8,9.1-10.9,18.5-15.2,28.4c-0.2,0.5-0.5,1.1-0.8,1.6c0,0.1-0.1,0.1-0.4,0.3c-2.3-0.1-4.4-1.3-6.8-2.1c0.2-0.8,0.2-1.5,0.5-2.1
	c1.6-3.5,3.1-7,4.9-10.4c6.6-13.1,13.4-26.1,20-39.1c0.5-1,1.1-1.9,1.7-2.9c1.1-1.6,2.6-2.5,4.6-2.3c1.2,0.1,2.4,0.1,3.6,0.2
	C255.6,629.7,256.3,629.9,257,630z M265.8,587.7c0.8,1.8,0.8,3.3,0.8,4.7c-0.2,9.4-1.2,18.6-3.3,27.8c-0.3,1.1-0.6,2.1-1,3.2
	c-0.7,2-2.2,3.2-4.3,3.3c-3.2,0.2-6.4,0.1-9.6,0c-1.4,0-2.1-0.8-2.7-2c-1.3-2.9-2.1-5.8-2.4-9c-0.3-3.3-0.1-6.6,0.6-9.9
	c0.4-1.8,0.6-2.1,2.3-1.9c2.4,0.3,4.6-0.2,6.8-0.7c2.3-0.6,4.3-1.5,6.3-2.9c3.5-2.5,5.5-5.8,5.9-10c0.1-0.6,0.1-1.2,0.2-1.8
	C265.4,588.3,265.5,588.2,265.8,587.7z M463.3,708.4c-2.3,0.3-4.1,0.2-5.9,0.2c-0.5,0-1,0.1-1.5-0.1c-0.5-0.1-0.9-0.4-1.2-0.8
	c-0.6-0.6-1.1-1.2-1.6-1.8c-8.7-10.7-15.7-22.4-21.5-34.9c-6-13-10.8-26.5-15-40.1c-0.1-0.4-0.2-0.8-0.3-1.2c0-0.1,0.1-0.2,0.2-0.4
	c1.3-0.1,2.2,0.4,2.7,1.7c1.5,3.5,3.1,7,4.7,10.5c5.7,12.5,12,24.8,18.6,36.9c5.4,9.7,11.6,18.9,18.8,27.3
	C461.9,706.5,462.4,707.3,463.3,708.4z"/>
<path class="st6" d="M445.6,283.6c1,1.7,2.2,2.6,3.4,3.5c5.4,4.4,10.7,8.8,14.9,14.4c0.1,0.1,0.1,0.4,0.3,0.8
	c-1.2-0.2-2-1.1-2.8-1.7c-0.9-0.6-1.8-1.3-2.7-1.9c-0.9-0.6-1.8-1.2-2.8-1.8c-0.9-0.6-1.9-1.2-2.8-1.7c-1-0.6-1.9-1.1-2.9-1.6
	c-1.1-0.6-2.1-1.1-3.2-1.7c-1-0.5-2-1-3-1.5s-2-0.9-3-1.4s-2-0.9-3-1.3s-2-0.9-3.1-1.3s-2.1-0.8-3.1-1.2c-1-0.4-2.2-0.4-3-1.6
	c0.1-0.4,0.2-1,0.5-1.6c1-2.4,2-4.8,3.1-7.2c0.6-1.3,1-1.6,2.4-1.2c4.2,1.2,8.1,0.3,12-1.4c13.3-6,21.1-16.3,23.6-30.6
	c0.7-4.2,1.1-8.4,1.6-12.6c0.4-3.5,0-7-0.9-10.5c-0.6-2.5-1.7-4.7-3.4-6.6c-3.5-4-7.9-5.3-13.1-4.1c-3.2,0.8-5.9,2.6-8.2,4.9
	c-1.1,1.1-2,2.2-3.1,3.3c-0.3,0.3-0.7,0.6-1.1,0.9c-0.9-0.7-0.5-1.6-0.5-2.4c-0.1-7.6-0.3-15.3-0.4-22.9c0-1.1-0.1-2.2-0.1-3.3
	c0.1-3.9-0.5-7.6-2.2-11.1c-1.2-2.5-0.6-4.4,1-6.4c0.9-1.1,1.8-2.1,2.7-3.3c0.8-1,1.7-1.2,2.9-0.9c2.9,0.7,5.9,1.3,8.8,2.1
	c4.1,1.2,8.2,1.9,12.5,2.3c9.4,0.8,18.8,1.8,28.2,3.2c3.1,0.4,6.1,1.1,9.2,1.8c0.9,0.2,1.7,0.5,2.8,0.9c-0.3,0.6-0.5,1.1-0.8,1.4
	c-0.8,0.7-1.7,1.4-2.6,2c-5.2,3.6-11,6.4-16.8,8.9c-1.1,0.5-2.4,0.7-4,1.1c1.1,0.7,2,1.2,2.8,1.7c5.4,3.1,10.9,6,16.3,9.2
	c6.6,4,12.6,8.6,17.9,14.2c1.1,1.2,2.2,2.4,3.1,3.7c1.2,1.7,1.3,3.6,0.4,5.4c-0.5,1.1-1.1,2.1-1.8,3.1c-4.6,7.1-10,13.4-16.2,19.1
	c-11.9,10.9-24.4,21-37.9,29.8c-2,1.3-4,2.3-6.3,2.8c-4.5,1.2-8.9,2.4-13.4,3.6C447,283.1,446.5,283.3,445.6,283.6z M229.8,218
	c-1-0.3-1.5-0.5-2-0.6c-4.7-1.1-8.8,1.8-9.2,6.6c-0.4,4.1,0,8.2,0.9,12.3c1.5,6.6,4.1,12.8,7.6,18.6c0.2,0.4,0.5,0.7,0.6,1
	c0.1,0.2,0.1,0.5-0.1,0.6c-0.2,0.2-0.5,0.4-0.8,0.3c-0.4-0.1-0.8-0.3-1.1-0.5c-9.6-6.4-18.9-12.9-27.2-21c-1.9-1.9-3.7-4-5.4-6.1
	c-3.7-4.6-4-9.5-1.4-14.7c1.8-3.5,3.9-6.8,6.3-9.9c4.1-5.2,8.7-10,13.6-14.6c0.7-0.7,1.4-1.4,2.1-2.2c0.7-0.9,0.7-1.9,0-2.8
	c-0.5-0.7-1.2-1.4-1.9-1.9c-3.9-3.4-7.4-7.1-10.8-10.9c-0.3-0.4-0.6-0.8-0.9-1.2c-0.1-0.1-0.1-0.4-0.1-0.7c0.8-0.9,1.9-1.1,3-0.7
	c1,0.3,2.1,0.8,3,1.4c5.6,3.4,11.1,6.9,16.6,10.4c0.7,0.4,1.4,0.9,1.9,1.4c1.3,1.1,2,2.5,1.9,4.2c-0.1,1.2-0.1,2.4-0.1,3.6
	c-0.2,7.2,0.8,14.2,2.3,21.3C229,213.8,229.3,215.6,229.8,218z M244,280.1c-7.4-3.7-14.3-7.1-21.1-10.9c-2.5-1.4-4.8-3-7.1-4.5
	c-0.2-0.1-0.4-0.5-0.7-0.9c0.6-0.4,1-0.9,1.6-1.2c2.9-1.5,6-2.3,9.1-3c4.2-1,3-1.5,6.1,1.7c2.3,2.4,4.8,4.6,7.7,6.2
	c1.3,0.8,2.1,1.7,2.4,3.2c0.5,2.5,1.1,4.9,1.7,7.3C243.9,278.5,243.9,279,244,280.1z"/>
<path class="st7" d="M478.2,708.4c-0.7,0.1-1.1,0.3-1.4,0.3c-3.4,0-6.8,0-10.3,0c-1.1,0-1.9-0.4-2.6-1.3c-6.2-7.4-12.2-15-17-23.4
	c-7.7-13.2-14.6-26.8-21.1-40.7c-1.7-3.7-3.3-7.3-5-11c-0.3-0.6-0.5-1.3-0.8-2.2c3,0.1,5.8,0.2,8.6,0.2c2.9,0,5.5-1,8.2-2.2
	C447.3,656.7,461.1,683.1,478.2,708.4z M394.6,153.7c-0.5,0-1-0.1-1.5-0.1c-4.9-0.7-9.7-1.5-14.6-2.2c-7.2-0.9-14.4-1.7-21.6-2.7
	c-8.2-1.1-16.4-1.8-24.7-1.8c-6.2,0-12.5-0.1-18.7,0.3c-6.7,0.4-13.4,1.1-20.1,1.9c-11.3,1.4-22.5,3.3-33.6,5.8
	c-8.1,1.8-16.1,3.8-24.1,5.6c-0.5,0.1-0.9,0.2-2,0.5c0.7-0.8,1-1.3,1.4-1.6c5.7-4.6,12.1-8,18.9-10.6c10-3.8,20.3-6.3,30.9-8
	c12.9-2,25.8-2.5,38.8-2.1c16.2,0.5,32,3.1,47.6,7.3c6.6,1.8,13.1,3.8,19.7,5.8c1.2,0.4,2.4,0.9,3.6,1.4
	C394.7,153.4,394.6,153.5,394.6,153.7z M237.8,625.5c3,1.7,6,3,9.7,3.5c-0.4,0.6-0.7,1-0.9,1.4c-0.7,1.1-1.5,2.1-2.1,3.3
	c-8,15.1-15.8,30.3-23.3,45.7c-1,2-1.8,4-2.8,6.2c-1.1,0.1-2.1-0.4-3.2-1c0.1-0.5,0.1-1.1,0.3-1.7c0.5-1.5,1.1-3,1.6-4.5
	c3.9-10.5,7.8-21.1,11.8-31.6c1.8-4.7,3.8-9.3,5.7-14c0.8-1.9,1.5-3.7,2.3-5.6C237,626.6,237.4,626.1,237.8,625.5z M426.2,597.4
	c3.4-1.6,6.4-3.6,8.4-6.8c1.9,1,2.2,1.2,2.7,3.1c0.5,1.5,0.8,3.1,1,4.7c0.6,4.7,1.2,9.4,1.6,14.1c0.2,1.8,0.1,3.6-0.1,5.4
	c-0.8,5.3-4.1,8.7-9.3,9.8c-1.1,0.2-2.2,0.2-3.3,0.3c-0.6,0-1.3,0-2.2-0.1c0.4-0.5,0.5-0.7,0.7-0.9c2.1-1.5,3.1-3.6,3.5-6.1
	c0.6-4.4,1.2-8.8,1.2-13.2c0-0.9,0-1.8-0.1-2.7c-0.2-2.8-1.2-5.3-3.7-6.9C426.4,598,426.4,597.7,426.2,597.4z M243.2,603.1
	c-0.3,2.5-0.7,5-0.9,7.5c-0.2,2.6-0.2,5.2,0.4,7.8c0.6,2.4,1.3,4.8,2,7.4c-2-0.1-3.5-1-4.9-2.3c-2-1.7-3-4-3.6-6.5s-0.8-5-0.6-7.5
	c0.2-2.7,0.5-5.4,0.8-8.1c0.1-0.6,0.3-1.1,0.5-1.9C239,600.8,241.1,601.9,243.2,603.1z"/>
<path class="st8" d="M284.4,363.5c-0.6,0.5-1.1,1-1.7,1.5c-5.6,4.9-11.3,9.7-16.8,14.7c-5,4.4-8.1,10-9.3,16.5
	c-1,5.5-2,11.1-2.8,16.7c-1.6,11.9-2.3,23.8-2.2,35.8c0,1.3,0.1,2.6,0.1,3.9c-0.1,1.3-0.7,2.2-2,2.7c-3.4,1.1-6.8,2.4-10.2,3.6
	c-0.7,0.3-1.5,0.4-2.5,0.6c-0.1-1.1-0.2-2-0.2-2.9c-0.1-6.2-0.3-12.5-0.3-18.7c0.1-10.1,0.3-20.1,1.7-30.1c1-7,2.4-13.9,5.3-20.4
	c1.6-3.6,3.6-7,6-10.1c0.2-0.2,0.4-0.5,0.6-0.7c1.1-2.2,3-3.3,5.1-4.4c5.9-3,11.9-5.9,18.2-8c3.4-1.2,6.9-1.5,10.4-1.3
	c0.2,0,0.4,0.1,0.5,0.2C284.2,363.2,284.2,363.3,284.4,363.5z M451,466.4c-1.9-1.4-3.4-2.5-5.1-3.7c0.5-1.8,1.1-3.6,1.6-5.4
	c5.7-19.6,11.9-39,19.3-58c2.3-6,5-11.9,8.7-17.2c0.6-0.9,1.3-1.8,2-2.7c0.9,0.3,1.6,0.5,2.4,0.8c1.5,0.7,2.8,1.5,4.3,2.2
	c2.1,1,3.2,2.6,3.7,5c-0.9-0.1-1.6-0.1-2.4-0.2c-4.7-0.6-7.2,0.6-9.1,5s-3.6,8.9-5.4,13.4c-6.2,16.3-11.3,32.9-16.3,49.5
	c-0.9,2.9-1.7,5.8-2.6,8.7C451.9,464.6,451.5,465.3,451,466.4z M244.1,599.9c-0.4,0.1-0.6,0.2-0.8,0.1c-4.6-1.8-7.9-5-8.9-9.9
	c-0.8-3.7-0.9-7.6-1.4-11.3c-0.1-0.8,0.1-1.6,0.7-2.2c4.2-4.7,6.9-10.3,9-16.2c0.1-0.2,0.2-0.3,0.5-0.6c0.3,1.1,0.1,2-0.1,3
	c-1.1,7.6-1.5,15.2-1.7,22.8c-0.1,4.6,0.6,9,2.3,13.3C243.9,599.1,244,599.5,244.1,599.9z M426.2,578.2c0.5,0.2,0.8,0.4,1.1,0.6
	c2.1,1.4,4.1,2.8,6.2,4.2c1.1,0.7,1.3,1.2,0.9,2.2c-1.7,4.8-4.6,8.4-9.7,9.9c-0.2,0-0.4,0-0.8,0c0-0.6,0-1.1,0.2-1.7
	c0.5-2.1,1.2-4.2,1.6-6.4c0.5-2.6,0.7-5.2,0.3-7.8C426,579,426.1,578.7,426.2,578.2z"/>
<path class="st9" d="M232.8,162.6c13.7-4.3,51.7-11.9,58.1-11.8c-0.1,0.4-0.2,0.8-0.4,1.1c-4.5,9.4-8.2,19-11.4,28.9
	c-0.2,0.6-0.3,1.2-0.4,1.8c-0.1,1.8,1.1,3.1,2.9,3.2c1.2,0.1,2.1-0.4,3.1-0.9c5.7-2.8,11.2-6,16.5-9.5c0.8-0.6,1.7-1.1,2.7-1.7
	c0.8,0.9,0.9,1.9,1.1,2.8c1.4,6.4,2.9,12.7,4.9,19c1.1,3.6,2.3,7.1,4.4,10.2c0.6,1,1.4,2,2.2,2.9c1.2,1.1,2.5,1.3,3.9,0.4
	c0.9-0.5,1.6-1.2,2.3-1.9c3.8-3.6,7.1-7.7,10.2-11.9c8.8-12.1,17-24.7,24.9-37.4c1.5-2.4,3-4.8,4.5-7.2c0.8,0.1,1.5,0.1,2.2,0.3
	c18,4.2,36,8.4,54,12.7c1.5,0.4,2.9,0.8,4.3,1.4c4.5,1.8,7.8,4.9,10,9.2c2,4.1,3.4,8.4,4.4,12.8c2,9.1,2.9,18.3,2.6,27.6
	c0,1.6-0.3,3.2-0.5,4.8c-0.1,0.7-0.2,1.4,0,2.1c0.1,0.5,0.7,1,1.2,1.2c0.6,0.3,1.2,0,1.6-0.5c0.3-0.4,0.5-0.9,0.8-1.3
	c1.6-2.1,3.1-4.2,4.9-6.1c2-2.2,4.5-3.7,7.4-4.6c4.4-1.3,8.6,0.1,11.2,3.8c1,1.4,1.8,2.9,2.3,4.6c0.9,2.7,1.4,5.5,1.2,8.3
	c-0.4,6.8-1.4,13.6-3.3,20.2c-2.8,9.6-8.7,16.6-17.5,21.3c-2.5,1.3-5.1,2.5-7.8,3.2c-2.5,0.7-4.8,0.4-7-0.9
	c-0.4-0.2-0.7-0.4-1.1-0.6c-0.6-0.3-1.2-0.1-1.6,0.5c-0.3,0.4-0.4,0.9-0.6,1.4c-1.5,3.6-3.1,7.2-4.7,10.8c-3.3,7.3-7.4,14.1-12.7,20
	c-5.4,6-11.6,10.8-18.8,14.4c-5.3,2.7-10.6,5.3-15.9,8c-1.6,0.8-3.3,1.5-5,2.1c-10.6,4.1-21.4,7.8-32.5,10.3
	c-5.1,1.1-10.3,1.8-15.6,1.6c-2.5-0.1-5-0.6-7.4-1.1c-9-1.9-17.3-5.9-25.4-10.1c-12.1-6.3-23.4-13.9-33.8-22.6
	c-2-1.7-3.9-3.5-5.5-5.6c-2.4-3.2-3.9-6.8-4.8-10.7c-4.1-17.4-8.1-34.9-12.2-52.3c-2.2-9.4-4.4-18.8-6.2-28.3
	c-1.3-6.4-2-12.9-1.6-19.5c0.2-3.6,0.3-7.3,0.8-10.8c0.5-3.6,1.3-7.1,2-10.7C231.9,165.9,232.4,164.3,232.8,162.6z M415,181.2
	c-0.2-0.4-0.4-1.1-0.9-1.5c-3.5-3.6-7.2-7-11.3-9.9c-1.5-1.1-3.3-1.4-5.2-1c-0.8,0.2-1.6,0.4-2.3,0.6c-11.6,4.1-22.1,10-31.3,18.3
	c-2.8,2.5-5.4,5.1-7.7,8c-1.9,2.5-3.4,5.2-4.4,8.2c-0.2,0.7-0.2,1.4,0.3,2c0.6,0.7,1.4,0.8,2.2,0.5c0.6-0.2,1.1-0.4,1.6-0.7
	c1.5-0.9,3.1-1.9,4.5-2.9c9.6-7.2,20.4-12,32-15.1c5.5-1.5,11.2-2.3,16.9-3.1c1.3-0.2,2.6-0.4,3.8-0.7
	C414.3,183.5,414.9,182.7,415,181.2z M408.2,221.5c0-1.1,0-2.1-0.2-3.1c-0.1-1.1-0.3-2.2-0.6-3.3c-2.5-8.9-7.6-15.9-15.7-20.5
	c-5.5-3.1-10.9-3.2-16.3,0c-5.6,3.3-9.9,7.9-12.6,13.9c-1.5,3.2-2.8,6.5-1.6,10.4c0.8,2.9,0.7,6.2,1.2,9.2s1,6.1,1.8,9.2
	c1,3.9,2.9,7.5,5.4,10.7c1.5,1.9,3.3,3.6,5.6,4.4c2.2,0.8,4.4,1.4,6.6,2c0.8,0.2,1.6,0.2,2.4,0c2.2-0.4,4.3-0.9,6.5-1.5
	c3-0.8,5.3-2.5,6.9-5.1c1.2-1.9,2.4-4,3.4-6c2-4.1,3.4-8.4,4.6-12.7c0.3-0.9,0.4-1.9,1.4-2.6c0.4-0.3,0.7-1,0.8-1.5
	C408,223.8,408.1,222.6,408.2,221.5z M291.7,202.5c-0.1-1-0.1-1.6-0.2-2.1c-0.5-2.1-1.7-3.8-3.2-5.4c-5.4-5.8-11.7-10.5-18.9-13.8
	c-5.4-2.5-11.1-4.1-16.8-5.7c-2.3-0.7-4.2,0.1-5.6,1.9c-0.7,0.9-1.3,1.8-1.8,2.8c-0.6,1.1-1.1,2.4-1.8,3.5c-1.3,2.3-0.8,4,2.4,4
	c6,0,11.8,1.1,17.6,2.4c9.1,2,17.6,5.5,25.3,10.9c0.6,0.4,1.2,0.8,1.8,1.2C290.8,202.2,291,202.3,291.7,202.5z M272.6,252.7
	c2.4-0.4,4.8-0.6,7.1-1.2c3.5-0.9,6-3.1,7.5-6.5c0.2-0.6,0.5-1.1,0.6-1.7c1.5-4.4,2.4-8.9,2.6-13.6c0.1-3.5,0-7,0-10.6
	c0-1-0.2-2,0.6-2.9c0.6-0.8,0.5-1.6,0.4-2.6c-0.6-4.4-2.7-8.2-5.3-11.6c-2.5-3.3-5.9-5.4-9.7-6.9c-2.2-0.8-4.5-1.4-6.8-0.8
	c-4.7,1.1-8.8,3.6-11.5,7.7c-3.3,4.9-5,10.5-5.6,16.4c-0.2,1.9-0.4,3.8,0.7,5.6c0.3,0.5,0.3,1.2,0.3,1.8c0.6,5.4,2.1,10.6,4.2,15.7
	c1.5,3.7,4,6.4,7.2,8.7C267.3,251.7,269.7,252.6,272.6,252.7z M372.7,293.1c-1.2,0.3-3,0.6-5.3,1.1c-18.7,3.9-28,5.8-30.7,6.2
	c-16.4,2.1-29.7-0.4-35.5-1.5c-7-1.4-12.7-3.1-16.8-4.6c1.5,1.2,4.1,3.1,7.6,5.1c25.3,14.1,54.3,4.8,61,2.7
	C357.8,300.4,364.8,297.8,372.7,293.1z M447.5,237.7c0.1-0.5,0.2-0.9,0.4-1.2c2.2-4.8,5.1-9.1,9-12.7c1.4-1.3,2.8-2.6,4.1-4
	c0.5-0.6,1-1.2,0.4-2c-0.3,0.1-0.6,0-0.7,0.1c-7.6,4.9-13.1,11.5-15.9,20.2c-0.3,0.8-0.5,1.5-0.6,2.3c0,0.4,0.3,1,0.6,1.2
	c0.5,0.4,0.9-0.1,1.3-0.4c0.2-0.2,0.5-0.3,0.7-0.4c1.4,1,2.1,2.3,2.6,3.7c1.2,3.9,1,7.6-1.2,11c-0.6,1-1.3,2-1.5,3.3
	c-0.1,0.5,0,1,0.7,1.2c3.5-4,6.5-8.4,9.3-12.9c0.1-0.3,0.3-0.6,0.3-0.8c0-0.3-0.2-0.6-0.4-0.7s-0.7-0.3-0.8-0.1
	c-0.5,0.3-0.9,0.8-1.3,1.2c-0.5,0.5-0.6,1.3-1.5,1.2C450.8,240.2,450.3,241,447.5,237.7z M366,271.4c0.4,1.2,0.9,1.5,1.7,1.2
	c2.2-0.9,4.4-1.9,6.6-2.9c0.7-0.3,1.5-0.7,2.2-1c1-0.4,1.7-0.1,2.1,1c0.2,0.6,0.3,1.2,0.5,1.7c0.6,1.5,1.1,3,1.7,4.5
	c0.6,1.4,1.5,1.7,2.9,1.1c5.1-2.1,10.1-4.6,14.6-7.8c0.3-0.2,0.5-0.5,0.7-0.8c-0.5-0.8-1.2-0.7-1.7-0.6c-0.7,0.2-1.3,0.5-1.9,0.8
	c-3.2,1.6-6.5,3.3-9.7,4.9c-0.8,0.4-1.5,1-2.6,0.6c-0.8-0.8-0.9-1.9-1.4-2.9c-0.5-1.1-0.8-2.3-1.4-3.4c-1-2-2.1-2.6-4.2-1.8
	C372.7,267.6,369.4,269.3,366,271.4z M266.7,266.7c0.3,1.2,0.6,2,0.8,2.7c0.4,1.6,0.7,3.1,1.1,4.7c0.5,1.8,1.4,2.2,2.9,1.4
	c2.5-1.4,4.9-2.9,7.2-4.4c1.2-0.8,2.2-1.7,3-3.2c-1.6,0.1-2.6,1-3.7,1.5s-2.1,1.1-3.2,1.6s-2.2,1.4-3.5,1.5c-0.9-1-0.9-2.3-1.3-3.4
	c-0.4-1.2-0.7-2.5-1.2-3.7s-1.5-1.5-2.7-1c-0.5,0.3-1,0.6-1.5,1c-2.6,2.2-5.3,4.4-7.9,6.6c-0.1,0.1-0.1,0.4-0.2,0.5
	c0.3,0.8,0.9,1.1,1.6,0.5c2-1.5,4-3,6-4.5C264.9,268,265.6,267.5,266.7,266.7z M314.6,261.7c-2.6,1.6-4.6,4.6-4.8,7
	c-0.1,2,0.7,3.5,2.3,4.6c0.9,0.6,1.9,0.2,2-0.9c0.3-2.7,0.6-5.4,0.8-8.1C314.8,263.5,314.6,262.6,314.6,261.7z M316.8,262.7
	c-1.4,2.8-1.9,6.3-1.4,9.7c0.1,0.7,0.2,1.4,1,1.7c0.8,0.3,1.4-0.1,1.9-0.5c1-0.8,1.7-1.7,1.7-3c0-0.8,0.1-1.6-0.1-2.4
	C319.6,266,318.8,264,316.8,262.7z M394.6,538.3c-0.9-0.7-1.6-1-1.9-1.5c-2.2-3.5-4.6-6.9-5.6-10.9c-1-3.9-0.9-7.8,0.2-11.6
	c1-3.5,2.6-6.8,4.6-9.8c1.8-2.7,3.6-3.4,6.7-2.6c4.4,1,8.7,2.4,13,4c1,0.4,2.1,0.7,3.1,1c0.4,0.1,0.9,0,1.4-0.1
	c0.1-0.8-0.4-1-0.8-1.3c-2.4-1.5-5-2.7-7.7-3.5c-2.8-0.9-5.6-1.7-8.4-2.5c-3.3-0.9-6.1-0.1-8.4,2.5c-0.5,0.5-1,1-1.4,1.5
	c-0.8-0.1-0.8-0.7-0.8-1.1c0.1-1.3,0.1-2.6,0.4-3.9c1.1-4.4,2.8-8.6,4.9-12.6c1.8-3.3,3.3-4,6.9-2.9c4.8,1.5,9.5,3.2,14.2,5
	c4.9,1.9,9.7,4,14.3,6.4c1.7,0.9,3.5,1.4,5.3,2c0.3,0.1,0.8,0.1,1.5,0.1c-1.8-2-3.5-3.3-5.5-4.2c-8.5-4.1-17.1-8.1-26.2-10.9
	c-2.5-0.8-5-1.5-7.8-1.5c0.1-0.6,0.1-1.1,0.3-1.5c1.4-2.7,3.1-5.2,5.1-7.4c3.1-3.4,6.9-4.8,11.4-3.6c2.3,0.6,4.6,1.3,6.9,2.2
	c6.7,2.8,13.3,5.8,19.5,9.5c3.6,2.1,7.5,3.4,11.6,3.9c1.5,0.2,3,0.1,4.9,0.2c-0.4-0.6-0.5-1.1-0.8-1.1c-1.2-0.3-2.4-0.5-3.5-0.9
	c-5-1.5-9.9-3.3-14.4-6c-6.7-4-13.8-7-21.1-9.6c-0.9-0.3-1.7-0.6-2.6-0.8c-4.8-1-9-0.1-12.5,3.4c-1.7,1.7-3.1,3.7-4.6,5.6
	c-0.6,0.8-1.2,1.5-2,2.7c0-0.8-0.1-1.1,0-1.3c1.7-4.2,3.3-8.4,5-12.6c0.7-1.6,1.6-3,2.4-4.5c2.5-4.3,6.1-7.4,10.1-10.2
	c1.5-1,3-1.1,4.5-0.2c0.2,0.1,0.4,0.2,0.5,0.3c9.9,6.1,19.9,11.8,29.4,18.5c4.2,3,8.2,6.2,12.3,9.3c0.7,0.5,1.4,1.2,2.1,1.8
	c3.3,2.9,4.5,6.6,4,10.8c-0.9,7.1-1.8,14.2-2.6,21.3c-0.8,7.3-1.4,14.6-2,21.9c-0.5,5.8-0.9,11.6-1.3,17.5
	c-0.3,4.4-1.6,8.5-3.5,12.4c-1.2,2.4-2.4,4.8-3.6,7.2c1.1,1.2,1.5,1.2,2.1,0.3c0.3-0.4,0.6-0.8,0.8-1.3c2.2-4.3,4.6-8.5,5.9-13.2
	c0.1-0.5,0.3-1,0.5-1.6c0.7,0.5,1.4,1,2,1.5c4.4,3.7,9.1,7,14.1,9.8c10,5.6,20.1,11.1,30.1,16.6c2.3,1.2,4.7,2.2,7.1,3.3
	c0.9,0.4,1.8,0.8,2.7,1.3c2.9,1.6,5.2,3.7,7.1,6.4c5.5,7.8,7.7,16.5,7.2,26c-0.4,6.9-1.5,13.8-3.5,20.5c-2.3,7.6-6.1,14.5-11.8,20.1
	c-0.7,0.7-1.5,1.4-2.3,2c-5.9,4.8-12.5,6-19.8,3.9c-3.3-1-6.4-2.5-9.3-4.3c-9.7-6.3-17.2-14.4-22.2-24.9
	c-7.4-15.3-14.2-30.9-19.3-47.2c-0.8-2.6-2.3-4.3-4.9-5.3c-6.4-2.5-11.7-6.6-16.5-11.5c-3-3-4.8-6.7-5.6-10.8
	c-1.2-6.7-1.7-13.4-1.2-20.1c0.1-2,0.4-4,0.8-6c0.3-1.5-0.3-2.5-1.5-3.2c-2.1-1.3-4.2-2.8-6.3-4.1c-2.1-1.2-4.2-2.3-6.4-3.4
	c-0.7-0.4-1.5-0.6-2.3-0.7c-1-0.2-1.8,0.3-2.2,1.2c-0.4,0.9-0.7,1.9-0.9,2.9C396,530.5,395.4,534.2,394.6,538.3z M206.5,556.5
	c1.3,1.8,1.7,3.8,3.9,4.8c-0.2-0.9-0.2-1.5-0.4-2c-1.1-3.7-1.6-7.5-1.7-11.3c-0.1-3.5-0.1-7-0.1-10.6c0.1-6.9-0.7-13.6-1.8-20.4
	c-1.2-7.1-2-14.3-2.9-21.5c-0.6-4.6-0.9-9.2-1.3-13.8c-0.1-1.1-0.1-2.2-0.1-3.3c0-2.2,1.2-3.6,3.1-4.4c0.6-0.2,1.1-0.4,1.7-0.6
	c7-1.8,13.8-4.5,20.5-7.2s13.5-5.2,20.3-7.8c1.1-0.4,2.3-0.7,3.5-1c2.1-0.4,4,0.3,5.5,1.9c0.5,0.5,0.9,1.1,1.4,1.6
	c3.8,4.7,6.5,9.9,8.7,15.5c0.1,0.2,0,0.4,0,0.6c-0.3,0.5-0.8,0.4-1.3,0.4c-9.6-0.2-19,1.5-28.3,4c-3.5,0.9-7,1.8-10.5,2.7
	c-1.1,0.3-2.1,0.7-3.1,1.1c-0.6,0.2-0.7,0.7-0.5,1.2c0.2,0.6,0.7,0.7,1.2,0.6c1-0.2,2-0.5,2.9-0.8c8.4-2.6,17-4.3,25.6-5.6
	c2.8-0.4,5.6-0.7,8.4-0.9c1.2-0.1,2.4,0,3.6,0c3.6,0.2,6,1.9,7.4,5.3c0.3,0.8,0.7,1.7,0.9,2.6c0.8,4,1.6,8.1,2.3,12.1
	c0.1,0.9,0,1.8,0,2.9c-0.5-0.1-1-0.1-1.3-0.4c-4.1-2.5-8.7-3.2-13.4-2.8c-7.5,0.7-15,1.6-22.4,3.2c-0.6,0.1-1.2,0.3-1.7,0.6
	c-0.2,0.1-0.3,0.7-0.2,1.1c0,0.2,0.3,0.6,0.5,0.6c0.5,0.1,1,0.1,1.5,0c5.8-0.9,11.5-1.8,17.3-2.6c3.4-0.5,6.8-0.8,10.2-0.3
	c1.7,0.3,3.4,0.7,4.9,1.3c2.8,1.1,4.7,3,5.7,5.9c1.9,5.1,3.2,10.4,2.8,15.9c-0.1-0.6-0.1-1.2-0.3-1.7c-0.3-0.6-0.6-1.3-1-1.8
	c-0.4-0.4-0.9-0.8-1.5-1c-0.6-0.3-1.3-0.5-2-0.6c-6.1-1.4-12.4-1.6-18.6-0.7c-2.7,0.4-5.3,1-8,1.7c-0.8,0.2-1.6,0.6-2.6,0.9
	c0.4,0.4,0.6,0.7,0.8,0.7c1.4,0,2.9,0.2,4.2-0.1c5.9-1.3,11.8-1.6,17.7-1.1c1.9,0.2,3.8,0.4,5.7,0.8c2.5,0.5,3.2,1.5,3.1,4
	c-0.1,5.3-1.2,10.4-3.3,15.3c-1.7,4-4,7.7-6.7,11.1c-0.3,0.3-0.6,0.6-0.9,0.8c-0.1,0.1-0.2,0-0.5,0.1c-0.5-1.1-0.3-2.3-0.4-3.4
	c-0.1-1.3-0.2-2.6-0.2-3.9c0-1.2,0.1-2.4,0.1-3.6c0.1-1.2,0.2-2.4,0.3-3.5c-0.6-0.7-1.2-0.5-1.8-0.3c-3.4,0.7-6.9,1.5-10.3,2.2
	c-1.3,0.3-2.5,0.7-3.7,1.2s-2.3,0.6-3.4-0.1c-0.2-0.1-0.6-0.1-0.8-0.1c-0.9,0.6-0.9,1.5-1.1,2.4c-0.8,3.6-1.6,7.3-2.4,10.9
	c-0.5,2-1.1,4.1-1.8,6.1c-1.7,5-4.2,9.6-7.8,13.5c-1.1,1.2-1.6,2.5-1.4,4.1c0.4,3,0.5,6,0.8,9c0.1,1.8,0.4,3.6,1.5,5.2
	c1.7,2.5,1.8,5.3,1.3,8.1c-0.6,3.2-1,6.3-1,9.6c0,3.5,0.5,6.8,2,10c0.7,1.4,0.5,2.6,0,4c-2.5,6.2-4.9,12.3-7.2,18.6
	c-0.6,1.6-1.5,2.4-3.1,2.8c-9.8,2.7-20.4-0.6-26.3-8.4c-5.7-7.5-10.3-15.6-13.3-24.6c-3.4-10.2-2.4-19.9,3.1-29
	c3.1-5.2,6.4-10.3,9.7-15.3c2.2-3.4,4.6-6.6,6.8-10C205.2,558.3,205.7,557.6,206.5,556.5z M379,329.7c0.1,0.8,0.2,1.4,0.2,1.9
	c0,2.2-0.1,4.4,0,6.6c0.1,2.6,0.3,5.2,0.7,7.8c0.5,3.6,2.5,6.3,6,7.7c3.8,1.6,7.6,3.2,11.4,4.8c0.8,0.4,1.6,0.8,2.6,1.3
	c-0.5,0.7-0.9,1.3-1.4,1.7c-6.7,6.6-14.2,12.1-22.8,16.1c-8.8,4.1-18,7-27.5,8.7c-3.7,0.6-7.3,1.4-11,2c-1.1,0.2-2.2,0.2-3.3,0.3
	c-2.5,0.2-4.8-0.3-7-1.4c-4.4-2-8.6-4.4-12.6-7.1c-2.7-1.9-5.4-3.9-8-5.9c-2-1.5-3.8-3.3-5.3-5.3c-1.9-2.5-1.9-3.8,0.3-6.1
	c1.7-1.9,3.5-3.6,5.4-5.2c1.1-1,1.9-2.1,2.4-3.4c1.4-3.6,1.7-7.2,0.9-11c-0.2-1-0.4-2.1-0.7-3.4c0.7,0.3,1.2,0.4,1.7,0.6
	c5.7,2.7,11.7,3.4,17.9,3.1c8.2-0.4,16.1-2.1,23.9-4.6c8-2.7,16-5.4,23.8-8.5C377.4,330.2,378.1,330,379,329.7z M475.1,559.2
	c0.9-0.8,2-0.7,3-0.8c3.3-0.3,6.6-0.6,9.9-1c5.8-0.7,11.4-2.2,17.1-3.6c1.8-0.4,3.5-0.9,5.3-1.3c0.8-0.2,1.6-0.3,2.3-0.4
	c2.5,4.5,8.7,27.4,8.9,32.7c-0.4-0.1-0.8-0.1-1.1-0.3c-4.3-2.2-8.6-4.4-12.9-6.5s-8.6-4.3-12.7-7c-5.5-3.6-11.1-6.8-17-9.8
	c-0.9-0.5-1.7-1-2.6-1.5C475.3,559.8,475.3,559.5,475.1,559.2z M240.3,264.7c-1.2,0-1.9-0.9-2.6-1.5c-6.3-5.2-10.7-11.7-13.4-19.3
	c-2-5.5-3.1-11.2-3.4-17.1c-0.1-1.3,0.1-2.6,0.5-3.9c1.2-3.5,5-4.5,7.8-2.1c1,0.9,1.7,2,2.1,3.3c0.2,0.7,0.4,1.3,0.6,2
	c0.6,2.7,1.3,5.4,2,8.6c-0.7-0.5-1.1-0.7-1.4-1c-0.8-0.6-1.5-1.3-2.3-1.9c-0.2-0.2-0.6-0.2-0.9-0.2c-0.2,0-0.3,0.2-0.6,0.4
	c0.2,0.6,0.4,1.2,0.8,1.8c0.7,1.3,1.5,2.6,2.3,3.9c1.9,3.4,2.9,7.1,3.3,10.9c0.3,2.6,1.1,4.9,2.6,7c1.5,2.2,2.5,4.6,2.9,7.2
	C240.4,263.5,240.3,264.1,240.3,264.7z M196.5,533.3c2.9,1.2,5.2,2.8,7.4,4.5c0.8,0.6,1.3,1.5,1.4,2.6c0.2,1.5,0.4,3,0.4,4.5
	c0,2.5-0.2,5-0.4,7.5c-0.1,0.8-0.3,1.6-0.7,2.2c-3.1,4.7-6.3,9.3-9.4,14c-0.1,0.1-0.3,0.2-0.5,0.3c-0.1-0.1-0.4-0.3-0.4-0.4
	c0-3.3-0.1-6.6,0.5-9.9c0.2-1.2,0.3-2.4,0.3-3.6c0-6.8,0.7-13.6,1.1-20.4C196.2,534.2,196.3,533.9,196.5,533.3z M270.3,477.9
	c-1.3-2-1.9-4-2.9-5.8c-0.9-1.9-1.9-3.8-2.9-5.6c-1-1.9-2-3.7-3-5.4c0.4-1.3,1.3-1.5,2.2-1.6c2.4-0.4,4.8-0.5,7.2-0.2
	c0.9,0.1,1.8,0.4,2.6,0.8c3.6,1.8,4.8,5.2,3.1,8.9C275.1,472.2,272.9,475,270.3,477.9z M393.4,471.6c-1.1-1.6-1.5-3.2-1.5-4.8
	c-0.1-2.6-0.1-5.2,0.1-7.8c0.3-3.4,2.7-5.6,5.9-5.7c2.3,0,3.2,1,2.5,3.2c-0.2,0.6-0.5,1.1-0.7,1.7c-1.8,4-3.6,8-5.4,12
	C394,470.6,393.8,470.9,393.4,471.6z"/>
<path class="st4" d="M429.5,370.7c0.5,0,0.8,0,1,0c1,0.2,1.9,0.5,2.8,0.7c0.7,1,0.1,1.7-0.2,2.4c-5.3,15-10.4,30-14.8,45.3
	c-2.3,7.9-4.5,15.9-6.5,23.9c-0.7,2.7-1.9,4.8-4.7,6c-12.4-14-24.8-28.1-37.2-42.1c0.2-0.7,0.8-0.6,1.2-0.8c0.5-0.2,1-0.3,1.4-0.5
	c9.8-3,19.6-6,29.4-9.1c3.5-1.1,7-2.6,10.3-4.2c3.4-1.5,6.5-3.6,9.3-6.2c4-3.6,6.7-8,7.5-13.4C429.1,372.1,429.3,371.4,429.5,370.7z
	 M368.1,404.1c-1.3-1.2-2.4-2.2-3.5-3.2s-2.1-2.1-3.2-3.2c-1-1-2-2-3-3c-1.1-1-2.2-2-3.4-3c-1.1-1-2.3-1.8-3.7-3
	c1.1-0.7,2.1-0.9,3-1.2c3.6-1,7.2-2,10.7-3.1c12-3.8,22.9-9.8,32.2-18.4c1.6-1.5,3.2-3.1,4.6-4.7c1.1-1.3,1-1.6,0.1-3.2
	c-0.1-0.2-0.2-0.4-0.3-0.7c0.6-0.2,1.1-0.5,1.6-0.5c2.3-0.2,4.4,0.2,6.4,1.2c5.5,2.9,10.6,6.5,15.7,10.1c1.3,0.9,1.7,2.2,1.5,3.7
	c-0.1,0.6-0.3,1.2-0.4,1.8c-1.5,5.1-4.4,9.2-8.5,12.5c-2.6,2.1-5.5,3.6-8.6,4.9c-7.3,3.1-14.9,5.6-22.5,7.8
	c-5.6,1.6-11.2,3.2-16.8,4.8C369.4,403.8,368.6,404,368.1,404.1z M485.1,443.9c-1.6,2-3.3,4-4.8,6c-1.6,2.1-3.1,4.2-4.6,6.3
	c-1.4,2.1-2.8,4.2-4,6.4c-1.3,2.3-2.5,4.6-3.8,6.8c-1.3,2.3-2.1,4.7-3.7,7c-0.6-0.4-1.1-0.5-1.4-0.8c-2.4-2-4.8-3.9-7.3-5.9
	c-1.9-1.5-2-1.7-1.3-4.1c3.4-11.1,6.8-22.3,10.3-33.4c3.9-12.4,8.2-24.6,13.1-36.6c0.5-1.1,0.9-2.2,1.4-3.3c0.8-1.7,2.1-2.7,4.1-2.5
	c1.2,0.1,2.4,0,3.6,0.2c0.5,0,0.9,0.3,1.5,0.6c-0.3,0.9-0.6,1.7-0.9,2.5c-2.8,8.3-5,16.8-5.8,25.5c-0.4,4,0,8,0.6,12
	c0.5,3.4,1.3,6.7,2,10C484.4,441.7,484.8,442.8,485.1,443.9z M299.2,359.9c-0.5,1.2-0.9,2-1.2,2.8c-1.2,2.6-0.9,5.1,0.9,7.4
	c1.1,1.4,2.3,2.7,3.6,4.3c-0.7,0.6-1.5,0.7-2.2,0.9c-5.1,1.3-9.8,3.5-14.2,6.4c-1.1,0.7-2.1,1.6-3,2.5c-0.7,0.7-1.4,1.2-2.3,1.3
	c-5.9,0.8-11.5,2.8-17.3,4c-0.6,0.1-1.1,0.2-2,0.4c0.2-0.7,0.3-1.2,0.5-1.5c1-2,2.5-3.6,4.1-5.2c3.9-4,8.1-7.8,12.4-11.4
	c3.3-2.8,6.6-5.6,9.8-8.4C291.3,360.6,294.7,359.3,299.2,359.9z M216.7,455.8c0,0.7,0.1,1.4,0.1,2c0.1,2.5,0.3,5,0.4,7.5
	c0.1,1.9-0.2,2.5-2.1,3.1c-2,0.6-4,1.1-5.9,1.6c-0.1-0.2-0.2-0.3-0.3-0.4c0-0.1-0.1-0.2,0-0.3c2.3-4.4,4.7-8.8,7-13.2
	C216,456,216.3,456,216.7,455.8z M442.7,593c-1.5,0.7-2.4,0.6-3-0.5c-0.7-1.5-1.6-2.8-2.7-4c-0.3-0.3-0.5-0.9-0.6-1.3
	c-0.1-0.7,0.2-1.4,0.8-1.8c0.5-0.4,1.1-0.4,1.7-0.1c0.9,0.4,1.5,1.1,1.8,1.9C441.5,589.1,442.1,591,442.7,593z"/>
<path class="st10" d="M317.2,264.6c1.8,2.2,2.1,4.2,1.7,6.3c-0.2,1-0.5,1.2-2.2,1.9C316.4,270.2,316.2,267.7,317.2,264.6z"/>
<path class="st11" d="M378.6,230.1c0.5-0.1,0.6-0.1,0.7-0.1c1.1,0.5,2.2,0.9,3.4,1.4c0.2,1,0.4,2,0.7,2.9c0.3,1.1,1,1.6,1.9,1.6
	c1-0.1,1.6-0.5,1.9-1.6c0.2-0.8,0.3-1.6,0.4-2.4c0.1-0.4,0.2-0.8,0.3-1.3c0.8-0.1,1.5-0.2,2.2-0.3c0.2,0.3,0.4,0.5,0.3,0.7
	c-0.2,4.2-0.8,8.4-2.4,12.4c-0.3,0.8-0.7,1.7-1.2,2.4c-1.2,2-2.9,2-4.2,0c-0.4-0.7-0.8-1.4-1.1-2.1c-1.2-2.6-1.9-5.3-2.3-8.1
	C379,233.8,378.9,232,378.6,230.1z M272,230.8c1.6,0.4,3,0.7,4.3,1c0.3,0.9,0.6,1.8,1,2.6c0.3,0.6,0.8,0.9,1.5,0.9
	c0.8,0,1.4-0.3,1.7-1c0.3-0.6,0.3-1.4,0.6-2c0.4-0.8,1-1.5,1.6-2.1c0.4-0.3,1-0.4,1.8-0.6c-0.4,4.8-0.6,9.3-2.6,13.4
	c-0.3,0.5-0.6,1.1-1,1.5c-1.1,1.3-2.8,1.3-4,0.1c-0.5-0.5-0.8-1.1-1.2-1.7C273.5,239.3,272.6,235.4,272,230.8z"/>
<path class="st12" d="M269.6,593.1c3.8,0.6,7.4,1.3,11.1,1.7c5,0.6,10,1.1,15,1.5c4.4,0.4,8.8,0.5,13.3,0.8
	c8.8,0.5,17.7,1.1,26.5,1.6c4,0.2,8,0.5,12,0.7c14.6,0.7,29.2,1.1,43.8,0.8c0.9,0,1.8,0,2.7,0.1c0.2,0,0.4,0.2,0.7,0.4
	c0.1,0.3,0.3,0.8,0.3,1.3c0.3,2.9,0.7,5.8,1,8.7c0.6,5.9,3.5,10.2,8.8,12.9c0.5,0.3,1.1,0.5,1.6,0.8c3.8,1.7,6.4,4.5,7.9,8.3
	c0.4,0.9,0.8,1.9,1.1,2.8c1.8,6.3,4.2,12.4,6.5,18.5c0.4,1.1,1.2,2.2,0.7,3.6c-0.7,0.1-1.5,0.2-2.3,0.2c-13.4,0-26.8,0.1-40.1-0.2
	c-8.3-0.2-16.7-0.9-25-1.6c-7.2-0.6-14.4-1.3-21.6-2c-7-0.7-14-1.4-21-2.1c-2.2-0.2-4.4-0.3-6.6-0.6c-5.9-0.7-11.8-1.6-17.6-2.3
	c-3.2-0.4-6.4-0.8-9.6-0.8c-3.9,0-7.6-0.5-11.4-1.3c-2.6-0.6-5.3-1.1-8-1.6c-0.6-0.1-1.2-0.2-1.8-0.3c-1.7-0.5-2.6-1.4-1.7-3.3
	c0.8-1.6,1.5-3.3,2.3-4.9c1.1-2.5,2.2-5,3.4-7.4c0.4-0.9,0.9-1.8,1.6-2.5c1.4-1.3,2.1-3,2.4-4.8c0.7-3.8,1.4-7.5,2-11.3
	c0.8-5.1,1.3-10.2,1.4-15.3c0-0.5,0.1-1,0.2-1.5C269.2,593.6,269.4,593.4,269.6,593.1z M466.5,501c1.2-0.1,2.2-0.3,3.2-0.4
	c20.2-1.2,39.8-5.3,59-11.5c0.8-0.2,1.5-0.4,2.4-0.6c0.3,0.7,0.5,1.2,0.7,1.8c4.4,12.4,8.9,24.8,13.3,37.2c0.4,1.1,0.8,2.3,1.2,3.4
	c1,3.3,0.2,5-3,6.6c-0.9,0.4-1.8,0.8-2.8,1.2c-8.5,3.3-17,6.7-25.6,9.8c-3.4,1.2-7,2-10.5,2.7c-9.8,2.1-19.8,3.6-29.8,4.7
	c-1.6,0.2-3.1,0-4.4-0.7c-2.4-1.3-4.7-2.7-7-4.1c-1-0.6-1.3-1.5-1.3-2.6c0.1-1.1,0.2-2.2,0.3-3.3c0.2-2.2,0.5-4.4,0.4-6.6
	c-0.1-3,0.4-6,0.9-9c0.5-2.6,0.9-5.2,0.9-7.8c0.2-6.3,1.1-12.6,1.7-18.9C466.2,502.3,466.3,501.9,466.5,501z M287.3,89.3
	c0.6,0.6,1.3,1.2,1.8,1.9c3,3.3,6,6.5,8.9,9.9c1.8,2,3.8,3,6.5,3.3c11.5,1.3,23.1,1.4,34.6,1.1c7.9-0.2,15.9-0.8,23.8-1.7
	c1.9-0.2,3.8-0.4,5.7-0.6c1.9-0.2,3.1-1.2,4-2.8c1.6-3,3.3-6,5-8.9c0.4-0.8,0.9-1.5,1.4-2.3c1.5,0.2,2.5,1.2,3.6,1.8
	c1.2,0.7,2.5,1.4,3.7,2.1c1.1,0.7,2.5,0.9,3.2,2.4c-0.3,0.7-0.5,1.5-0.8,2.2c-3.4,7.1-7.3,13.9-11.8,20.3c-0.2,0.3-0.5,0.7-0.7,1
	c-0.6,1-1.5,1.3-2.6,1.1c-1.6-0.3-3.2-0.6-4.8-0.9c-11.3-2.1-22.6-3.5-34.1-4.2c-9.9-0.6-19.7-0.4-29.5,0.3
	c-3.9,0.3-7.8,0.8-11.7,1.1c-0.7,0.1-1.4,0.1-2.1,0.1c-0.8,0-1.4-0.2-1.9-0.8c-0.8-0.9-1.6-1.8-2.3-2.8c-3.2-4.8-6.4-9.5-9.5-14.3
	c-0.2-0.3-0.5-0.7-0.5-1.1c0-0.5,0.1-0.9,0.3-1.4c0-0.2,0.3-0.3,0.5-0.4c2.8-2,5.5-4,8.3-6C286.5,89.4,286.8,89.4,287.3,89.3z
	 M359.3,487.9c2.5-0.4,27.9-0.4,30.7,0c-0.1,0.6-0.2,1.1-0.4,1.7c-0.5,1.5-1,3.1-1.6,4.5c-1.5,3.6-2,7.4-1.4,11.2
	c0.3,2.3,0,4.3-0.9,6.4c-2.2,5-2.3,10.1-0.6,15.3c1.3,3.9,3.2,7.4,5.5,10.7c0.4,0.6,1.1,1.2,1.7,1.6c1.6,1.1,2.3,2.5,2.1,4.4
	c-0.2,1.9-0.5,3.8-0.7,5.8c-1,0.9-2.3,0.6-3.4,0.6c-7.6,0-15.3,0-22.9-0.2c-3.9-0.1-7.8-0.4-11.6-0.6c-0.4-0.7,0-1.1,0.3-1.5
	c1.4-1.8,3-3.5,4.3-5.5c5.9-8.6,8.4-18.2,7.8-28.6c-0.5-8.6-3.1-16.6-7.7-23.9c-0.3-0.5-0.6-1-0.9-1.5
	C359.3,488.4,359.3,488.3,359.3,487.9z M205,533.5c-1.1,0.4-2.2,0-3.2-0.5c-1.7-0.9-3.4-1.8-5-2.8c-4.6-2.8-9.3-5.6-14.2-7.8
	c-2.5-1.1-4.8-2.9-7.1-4.5c-1.5-1-1.9-2.5-1.3-4.3c0.2-0.6,0.4-1.1,0.6-1.7c3.2-8.9,6.4-17.8,9.6-26.6c0.2-0.5,0.5-1,0.9-1.8
	c0.5,0.4,0.9,0.6,1.3,1c3.4,3.6,7.5,6.3,12.1,8.4c0.4,0.2,0.7,0.3,1.1,0.5c1,0.5,1.5,1.2,1.6,2.3c0.2,9.7,2,19.2,3,28.7
	c0.2,2.1,0.7,4.2,1.1,6.2C205.4,532,205.4,532,205,533.5z M301.6,549.7c-5.3,0.8-25.4,0.5-29-0.5c0-0.3,0-0.6,0.2-0.8
	c2-3.3,3.6-6.8,5-10.3c1-2.6,2-5.3,3.1-7.8c1.7-3.8,1.8-7.6,0.9-11.5c-0.3-1.6-0.8-3.1-1.3-4.6c-1.5-4.2-2.2-8.6-2.7-13
	c-0.5-4.3-1-8.6-2-12.8c-0.2-1-0.5-1.9-0.8-3.1c7.3-0.1,14.3,0.7,21.3,0.8c0.4,0,0.7,0.2,1.3,0.3c-0.5,0.7-0.9,1.3-1.3,1.8
	c-6.5,7.7-9.6,16.6-9.6,26.7c0,5.5,0.6,10.8,2.1,16.1c2,6.8,5.5,12.7,11.1,17.3C300.4,548.7,300.9,549.1,301.6,549.7z M440.7,596.3
	c2.4-0.7,2.9-0.5,3.7,1.2c0.2,0.4,0.3,0.8,0.4,1.1c4.3,12.6,9.9,24.6,15.6,36.6c2.3,4.7,4.9,9.2,8.1,13.4c0.3,0.4,0.5,0.8,0.8,1.3
	c-0.3,0.3-0.5,0.5-0.8,0.6c-5.4,1.2-16.5,2.8-18.7,2.6c-0.4-0.7-0.8-1.5-1.2-2.3c-3.4-7.5-6.3-15.2-9.2-23c-0.5-1.2-0.5-2.3,0.3-3.4
	c2.5-3.8,3.1-8,2.6-12.4C441.9,606.9,441.3,601.7,440.7,596.3z M382.9,253.5c-0.5-0.1-1.2-0.2-1.9-0.4c-1.3-0.3-2.5-0.8-3.8-1.1
	c-3-0.8-5.2-2.5-7-4.9c-2.7-3.5-4.5-7.4-5.4-11.7c-0.7-3.4-1.2-6.9-1.8-10.4c-0.2-1.3-0.4-2.6-0.6-3.9c-0.2-1.1-0.1-2.2,0.5-3.2
	c1.2-2,2.3-4,3.4-6c2-3.4,4.4-6.5,7.3-9.2c1.3-1.2,2.8-2.3,4.3-3.3c3.1-1.9,6.3-1.9,9.5-0.3c1.4,0.8,2.8,1.6,4,2.6
	c4.4,3.4,7.5,7.8,9.6,12.9c1.4,3.5,2.6,7.2,3.8,10.8c0.2,0.6,0.1,1.4,0,2c-1.5,5.9-3.5,11.6-6.4,16.9c-0.6,1.1-1.3,2.3-2.1,3.3
	c-1.4,1.9-3.3,3.3-5.5,4C388.3,252.6,385.8,253.2,382.9,253.5z M393,223c0-2.5,0-5,0-7.5c-0.1-4.4-1.5-8.5-3.9-12.2
	c-0.6-0.9-1.1-1.6-2.2-2c-2.6-0.9-4.5-0.4-6.2,1.7c-1.4,1.7-2.1,3.6-2.7,5.7c-2,7.5-2.4,15.1-1.7,22.7c0.4,3.8,1.1,7.6,2.3,11.2
	c0.5,1.5,1.2,3,2,4.3c2.6,3.8,5.8,3.7,8.3-0.2c0.7-1.2,1.4-2.5,1.7-3.8c0.7-2.6,1.3-5.3,1.8-7.9C393.4,231.1,393.1,227.1,393,223z
	 M289.6,224.6c0,6.2-0.6,12.2-2.7,18c-0.3,0.9-0.7,1.9-1.1,2.8c-1.2,2.5-3.2,4.2-5.8,4.9c-2.3,0.6-4.7,1-7.1,1.2
	c-2.6,0.2-4.9-0.6-7.1-2.1c-3.1-2.2-5.6-4.9-7.1-8.4c-2.2-5.1-3.6-10.4-4.2-16c-0.1-0.6-0.1-1.3,0.1-1.8c0.9-1.9,1-3.9,1.4-5.8
	c0.6-3,1.5-5.8,3-8.5c1.7-3.1,4-5.8,7-7.8c4.9-3.2,9.8-2.8,14,1.1c0.9,0.8,1.7,1.7,2.5,2.6c2.8,3.4,4.9,7.2,6.3,11.3
	C289.8,218.9,289.6,221.9,289.6,224.6z M287.1,227.6c0-6.4-1.4-12.6-3.9-18.5c-0.5-1.2-1.1-2.4-1.9-3.4c-2.5-3.3-6.9-3-9,0.5
	c-0.4,0.7-0.8,1.4-1,2.2c-1.8,5.8-2.7,11.7-2.3,17.8c0.3,5,1.5,9.7,2.9,14.4c0.7,2.4,2,4.6,4,6.3c2.1,1.8,4.6,1.6,6.5-0.4
	c0.5-0.6,1-1.3,1.4-1.9c1.2-2.1,2-4.4,2.3-6.8C286.5,234.4,286.8,231,287.1,227.6z M385.5,64.6c-0.2,0.3-0.2,0.6-0.4,0.7
	c-3.3,1.8-6.5,3.6-9.6,5.3c-1.3-0.1-1.6-1-2.1-1.8c-2.5-3.9-5-7.8-7.5-11.7c-0.3-0.5-0.7-1-1-1.5c-1-1.8-2.6-2.7-4.7-2.7
	c-3.5-0.1-7-0.2-10.5-0.3c-8.4-0.1-16.7,0.1-25,0.9c-7.5,0.7-15,1.6-22.4,2.9c-1.9,0.3-3.3,1.3-4.4,2.9c-2.6,4-5.3,8.1-8,12.1
	c-0.5,0.8-0.9,1.8-2,2.2c-0.2-0.1-0.6-0.1-0.8-0.2c-3.9-2.5-7.8-4.9-11.7-7.4c-0.2-0.2-0.4-0.5-0.6-0.8c0.4-0.6,0.7-1.2,1.1-1.8
	c4.1-5.8,8.3-11.6,12.3-17.5c1.3-1.9,2.8-2.6,5-2.7c7.7-0.4,15.4-1.1,23.2-1.5c7-0.4,14.1-0.7,21.1-0.8c10-0.1,19.9-0.1,29.9-0.1
	c0.5,0,1,0,1.5,0c1.1,0,1.9,0.5,2.5,1.4c0.3,0.4,0.5,0.8,0.8,1.3c4.1,6.4,8.2,12.9,12.3,19.3C384.9,63.3,385.2,64.1,385.5,64.6z
	 M385.2,205.1c1.7,0.1,2.6,1.1,2.9,2.4c0.5,2.4,1,4.9,1.3,7.4c0.2,1.7-0.3,3.4-1,4.9c-1,2.2-3.5,1.7-4.4,0.4
	c-0.2-0.2-0.3-0.5-0.5-0.8C381.1,215.2,381.8,209.2,385.2,205.1z M280.1,214.4c0,2.8-0.3,4.8-1.1,6.6c-0.3,0.6-0.7,1.2-1.2,1.7
	c-0.8,0.8-2.2,0.6-2.9-0.3c-0.3-0.4-0.5-0.9-0.6-1.4c-1.5-5.2-0.6-10.1,1.8-14.8c0.4-0.8,1.5-0.9,1.9,0c0.6,1.2,1.2,2.5,1.6,3.9
	C279.9,211.8,280,213.5,280.1,214.4z"/>
<path class="st13" d="M382.7,229.7c-1.7,0.2-2.7-0.9-3.8-1.4c-0.6-4-0.3-10.7,0.8-14.4c0.4,3.3,1.4,6.1,2.9,8.7
	c0.3,0.5,0.4,1.1,0.5,1.7C383.2,226.2,383,227.9,382.7,229.7z M388.4,229c-0.2-1.6-0.5-3.1-0.5-4.7c0-1.5,1.1-2.2,2.2-2.7
	c0.7,0.2,0.6,0.7,0.6,1c0,1.5,0,3,0,4.5C390.6,228.9,390.6,229,388.4,229z M281.7,229.1c-0.3-1.8-0.6-3.4-0.9-5.1
	c-0.1-0.5-0.1-1,0.1-1.5c0.8-2,1.1-4,1.3-6.1c0-0.1,0.3-0.3,0.4-0.4c1.3,2.3,2,7.2,1.7,12c-0.4,0.2-0.8,0.4-1.2,0.6
	C282.7,228.8,282.2,229,281.7,229.1z M271.8,221.7c0.7,0.9,1.3,1.8,2,2.6c0.8,0.8,1.7,1.4,2.6,2.1c0.4,1.3,0.1,2.5-0.1,3.8
	c-1.8,0.5-3-0.4-4.3-1C271.1,226.3,271,224.3,271.8,221.7z"/>
<path class="st14" d="M291,297.5c6.4,2,11.9,3.1,15.7,3.7c18.9,2.9,34.5-0.1,45.6-2.3c6.2-1.2,11.3-2.6,14.7-3.6
	c-4,1.9-8.5,3.8-13.5,5.5c-11.9,3.9-22.8,5-31.1,5.2c-3.4-0.1-7.2-0.5-11.4-1.3C302.7,303,295.9,300.1,291,297.5z"/>
<path d="M353.1,302c4.7-1.5,11.7-4.2,19.6-8.9c-1.2,0.3-3,0.6-5.3,1.1c-18.7,3.9-28,5.8-30.7,6.2c-16.4,2.1-29.7-0.4-35.5-1.5
	c-7-1.4-12.7-3.2-16.8-4.6c1.5,1.2,4.1,3.1,7.6,5.1C317.4,313.4,346.4,304.1,353.1,302z M311,304.6c-8.3-1.6-15.1-4.5-20.1-7.1
	c6.4,2,11.9,3.1,15.7,3.7c18.9,2.9,34.5-0.1,45.7-2.3c6.2-1.2,11.3-2.6,14.7-3.6c-4,1.9-8.5,3.8-13.5,5.5c-11.9,3.9-22.8,5-31.1,5.2
	C319,305.8,315.2,305.4,311,304.6z M263.5,190c-5.8-1.3-11.6-2.4-17.6-2.4c-3.3,0-3.7-1.7-2.5-4c0.6-1.1,1.1-2.4,1.8-3.5
	c0.5-1,1.1-1.9,1.8-2.8c1.5-1.8,3.3-2.5,5.6-1.9c5.7,1.6,11.4,3.2,16.8,5.7c7.2,3.3,13.5,8,18.9,13.8c1.5,1.6,2.7,3.3,3.2,5.4
	c0.1,0.6,0.1,1.2,0.2,2.1c-0.6-0.3-0.9-0.3-1.2-0.5c-0.6-0.4-1.2-0.8-1.8-1.2C281.1,195.5,272.6,192,263.5,190z M309.8,268.7
	c0.2-2.4,2.2-5.4,4.8-7c0.1,1,0.3,1.8,0.2,2.7c-0.2,2.7-0.5,5.4-0.8,8.1c-0.1,1.1-1.1,1.5-2,0.9
	C310.5,272.2,309.6,270.7,309.8,268.7z M271.9,240.6c0.7,2.4,2,4.6,4,6.3c2.1,1.8,4.6,1.6,6.5-0.4c0.5-0.6,1-1.3,1.4-1.9
	c1.2-2.1,2-4.4,2.3-6.8c0.4-3.4,0.7-6.8,1-10.2c0-6.4-1.4-12.6-3.9-18.5c-0.5-1.2-1.1-2.4-1.9-3.4c-2.5-3.3-6.9-3-9,0.5
	c-0.4,0.7-0.8,1.4-1,2.2c-1.8,5.8-2.7,11.7-2.3,17.8C269.3,231.1,270.5,235.9,271.9,240.6z M280.9,222.6c0.8-2,1.1-4,1.3-6.1
	c0-0.1,0.3-0.3,0.4-0.4c1.3,2.3,2,7.2,1.7,12c-0.4,0.2-0.8,0.4-1.2,0.6c-0.5,0.2-0.9,0.3-1.4,0.5c-0.3-1.8-0.6-3.4-0.9-5.1
	C280.8,223.6,280.8,223,280.9,222.6z M280.5,234.3c0.3-0.6,0.3-1.4,0.6-2c0.4-0.8,1-1.5,1.6-2.1c0.4-0.3,1-0.4,1.8-0.6
	c-0.4,4.8-0.7,9.3-2.6,13.4c-0.3,0.5-0.6,1.1-1,1.5c-1.1,1.3-2.8,1.3-4,0.1c-0.5-0.5-0.8-1.1-1.2-1.7c-2.3-3.6-3.2-7.5-3.7-12.1
	c1.6,0.4,3,0.7,4.3,1c0.3,0.9,0.6,1.8,1,2.6c0.3,0.6,0.8,0.9,1.5,0.9C279.5,235.3,280.2,235,280.5,234.3z M276,206.3
	c0.4-0.8,1.5-0.9,1.9,0c0.6,1.2,1.2,2.5,1.6,3.9c0.4,1.6,0.5,3.4,0.6,4.3c0,2.8-0.3,4.8-1.1,6.6c-0.3,0.6-0.7,1.2-1.2,1.7
	c-0.8,0.8-2.2,0.6-2.9-0.3c-0.3-0.4-0.5-0.9-0.6-1.3C272.8,215.9,273.7,211,276,206.3z M271.8,221.7c0.7,0.9,1.3,1.8,2,2.6
	c0.8,0.8,1.7,1.4,2.6,2.1c0.4,1.3,0.1,2.5-0.1,3.8c-1.8,0.5-3-0.4-4.3-1C271.1,226.3,271,224.3,271.8,221.7z M316.5,274.1
	c0.8,0.3,1.4-0.1,1.9-0.5c1-0.8,1.7-1.7,1.7-3c0-0.8,0.1-1.6-0.1-2.4c-0.4-2.2-1.2-4.2-3.2-5.5c-1.4,2.8-1.9,6.3-1.4,9.7
	C315.6,273.1,315.7,273.8,316.5,274.1z M317.2,264.6c1.8,2.2,2.1,4.2,1.7,6.3c-0.2,1-0.5,1.2-2.2,1.9
	C316.4,270.2,316.2,267.7,317.2,264.6z M265,250.1c2.3,1.6,4.8,2.5,7.7,2.6c2.4-0.4,4.8-0.6,7.1-1.2c3.5-0.9,6-3.1,7.5-6.5
	c0.2-0.5,0.5-1.1,0.6-1.7c1.5-4.4,2.4-8.9,2.6-13.6c0.1-3.5,0-7,0-10.5c0-1-0.2-2,0.6-2.9c0.6-0.8,0.5-1.6,0.4-2.6
	c-0.6-4.4-2.7-8.2-5.3-11.7c-2.5-3.3-5.9-5.5-9.7-6.9c-2.2-0.8-4.5-1.4-6.8-0.8c-4.7,1.1-8.8,3.6-11.5,7.7c-3.3,4.9-5,10.5-5.6,16.4
	c-0.2,1.9-0.4,3.8,0.7,5.6c0.3,0.5,0.3,1.2,0.3,1.8c0.6,5.4,2.1,10.6,4.2,15.7C259.3,245.1,261.8,247.8,265,250.1z M254.6,223.2
	c0.9-1.9,1-3.9,1.4-5.8c0.6-3,1.5-5.8,3-8.5c1.7-3.1,4-5.8,7-7.8c4.8-3.2,9.8-2.8,14,1.1c0.9,0.8,1.7,1.7,2.5,2.7
	c2.8,3.4,4.8,7.2,6.3,11.3c1,2.8,0.8,5.8,0.8,8.5c0,6.2-0.6,12.2-2.7,18c-0.3,1-0.7,1.9-1.1,2.8c-1.2,2.5-3.2,4.2-5.8,4.9
	c-2.3,0.6-4.7,1-7.1,1.2c-2.6,0.2-4.9-0.6-7.1-2.1c-3.1-2.2-5.6-4.9-7.1-8.4c-2.2-5.1-3.6-10.4-4.2-16
	C254.4,224.4,254.4,223.7,254.6,223.2z M278,269.4c1.2-0.5,2.2-1.4,3.7-1.5c-0.8,1.5-1.9,2.4-3,3.2c-2.4,1.5-4.8,3-7.2,4.4
	c-1.5,0.8-2.4,0.4-2.9-1.4c-0.4-1.5-0.8-3.1-1.1-4.7c-0.2-0.8-0.4-1.5-0.8-2.7c-1.1,0.8-1.8,1.3-2.5,1.8c-2,1.5-4,3-6,4.5
	c-0.8,0.6-1.3,0.3-1.6-0.5c0.1-0.2,0.1-0.4,0.2-0.5c2.6-2.2,5.2-4.4,7.9-6.6c0.5-0.4,1-0.7,1.5-1c1.2-0.6,2.2-0.3,2.7,1
	c0.5,1.2,0.8,2.5,1.2,3.7c0.4,1.1,0.3,2.4,1.3,3.4c1.3-0.2,2.4-1,3.5-1.5C275.9,270.5,276.9,269.9,278,269.4z M399.1,268.6
	c-0.2,0.2-0.4,0.6-0.7,0.8c-4.5,3.3-9.5,5.7-14.6,7.8c-1.5,0.6-2.3,0.3-2.9-1.1c-0.7-1.5-1.2-3-1.7-4.5c-0.2-0.6-0.3-1.2-0.5-1.7
	c-0.4-1.1-1.1-1.4-2.1-1c-0.8,0.3-1.5,0.6-2.2,1c-2.2,1-4.4,1.9-6.6,2.9c-0.8,0.3-1.3,0-1.7-1.2c3.3-2.1,6.7-3.9,10.3-5.2
	c2-0.7,3.2-0.2,4.2,1.8c0.5,1.1,0.9,2.2,1.3,3.3c0.4,1,0.6,2.1,1.4,2.9c1.1,0.4,1.9-0.3,2.6-0.6c3.3-1.6,6.5-3.2,9.7-4.9
	c0.6-0.3,1.3-0.6,1.9-0.8C398,267.9,398.6,267.8,399.1,268.6z M273.3,67.4c0.5,0.4,1.1,0.8,1.8,1.2c3.5,2.2,7,4.4,10.4,6.6
	c0.5,0.3,1,0.7,1.6,0.9c1.2,0.5,2.1,0.4,3-0.6c0.5-0.6,1-1.3,1.4-2c2.6-3.9,5.3-7.9,7.8-11.9c1.1-1.7,2.5-2.8,4.6-3
	c0.3,0,0.6-0.1,0.9-0.2c10.4-1.7,20.9-2.9,31.5-3.2c3-0.1,6-0.3,9-0.2c4.6,0,9.3,0.2,13.9,0.3c2,0,3.5,0.8,4.5,2.6
	c0.1,0.2,0.2,0.3,0.3,0.5c2.6,4.1,5.2,8.2,7.8,12.2c0.4,0.7,0.9,1.4,1.4,2c0.7,0.9,1.6,1.1,2.7,0.7c0.5-0.2,0.9-0.5,1.3-0.7
	c2.9-1.6,5.8-3.2,8.7-4.8c0.6-0.3,1.3-0.7,1.8-1.2c0.4-0.4,0.5-1,0.9-1.6c-0.5-0.9-0.9-1.8-1.5-2.6c-4.4-6.9-8.8-13.7-13.2-20.6
	c-0.3-0.5-0.6-1-1-1.5c-0.8-1.1-2-1.7-3.3-1.8c-0.7,0-1.4,0-2.1,0c-5.8,0-11.7,0-17.5,0c-6.6,0-13.3-0.1-19.9,0.3
	c-12.6,0.6-25.1,1.5-37.7,2.2c-2.5,0.1-4.3,1.1-5.7,3.2c-4.2,6.2-8.5,12.2-12.8,18.3c-0.4,0.6-0.8,1.2-1.1,1.8
	C272,65.4,272.2,66.5,273.3,67.4z M275.9,63.4c4.1-5.8,8.3-11.7,12.3-17.5c1.3-1.9,2.8-2.6,5-2.7c7.7-0.4,15.4-1.1,23.2-1.5
	c7-0.4,14.1-0.7,21.1-0.8c10-0.1,19.9-0.1,29.9-0.1c0.5,0,1,0,1.5,0c1.1,0,1.9,0.5,2.5,1.4c0.3,0.4,0.5,0.8,0.8,1.3
	c4.1,6.4,8.2,12.9,12.3,19.3c0.4,0.7,0.7,1.4,1,2c-0.2,0.4-0.2,0.6-0.4,0.7c-3.3,1.8-6.5,3.6-9.6,5.3c-1.3-0.1-1.6-1-2.1-1.8
	c-2.5-3.9-5-7.8-7.5-11.7c-0.3-0.5-0.7-1-1-1.5c-1-1.8-2.6-2.7-4.7-2.7c-3.5-0.1-7-0.2-10.5-0.3c-8.3-0.1-16.7,0.1-25,0.9
	c-7.5,0.7-15,1.6-22.4,2.9c-1.9,0.3-3.3,1.3-4.4,2.9c-2.6,4-5.3,8.1-8,12.1c-0.5,0.8-0.9,1.8-2,2.2c-0.2-0.1-0.6-0.1-0.8-0.2
	c-3.9-2.5-7.8-5-11.7-7.4c-0.2-0.2-0.4-0.5-0.6-0.8C275.2,64.6,275.5,64,275.9,63.4z M352.1,205.8c-0.5-0.6-0.5-1.3-0.3-2
	c1-3,2.5-5.7,4.4-8.2c2.3-2.9,5-5.5,7.7-8c9.2-8.2,19.7-14.1,31.3-18.3c0.8-0.3,1.5-0.5,2.3-0.7c1.9-0.4,3.6-0.1,5.2,1
	c4.1,3,7.8,6.3,11.3,9.9c0.5,0.5,0.7,1.2,0.9,1.5c-0.1,1.5-0.7,2.3-1.8,2.6c-1.2,0.4-2.5,0.5-3.8,0.7c-5.7,0.8-11.3,1.6-16.9,3.1
	c-11.6,3-22.4,7.8-32,15.1c-1.4,1.1-3,2-4.5,3c-0.5,0.3-1.1,0.6-1.6,0.7C353.5,206.6,352.7,206.5,352.1,205.8z M407.4,215.1
	c-2.5-8.9-7.6-15.9-15.7-20.5c-5.5-3.2-10.9-3.2-16.3,0c-5.6,3.3-9.9,7.9-12.6,13.9c-1.5,3.2-2.8,6.5-1.7,10.4
	c0.8,2.9,0.7,6.2,1.2,9.2c0.5,3.1,1,6.1,1.8,9.2c1,3.9,2.9,7.5,5.4,10.7c1.5,1.9,3.3,3.6,5.6,4.4c2.2,0.8,4.4,1.4,6.6,2
	c0.8,0.2,1.6,0.2,2.4,0c2.2-0.4,4.3-0.9,6.5-1.5c3-0.8,5.3-2.5,6.9-5c1.2-1.9,2.4-4,3.4-6c2-4.1,3.4-8.4,4.6-12.7
	c0.3-1,0.4-1.9,1.4-2.6c0.4-0.3,0.7-1,0.8-1.5c0.2-1.2,0.3-2.4,0.4-3.5c0-1.1,0-2.1-0.2-3.1C407.9,217.3,407.7,216.2,407.4,215.1z
	 M404.9,227.6c-1.5,5.9-3.5,11.5-6.4,16.9c-0.6,1.1-1.3,2.3-2.1,3.3c-1.4,1.9-3.3,3.3-5.5,4c-2.5,0.8-5,1.4-7.9,1.7
	c-0.5-0.1-1.2-0.2-1.9-0.4c-1.3-0.3-2.5-0.8-3.8-1.1c-3-0.8-5.2-2.5-7-4.9c-2.7-3.5-4.5-7.4-5.4-11.7c-0.7-3.4-1.2-6.9-1.8-10.4
	c-0.2-1.3-0.4-2.6-0.6-3.9c-0.2-1.1-0.1-2.2,0.5-3.2c1.2-2,2.3-4,3.4-6c2-3.4,4.4-6.5,7.3-9.2c1.3-1.2,2.8-2.3,4.3-3.3
	c3.1-1.9,6.3-2,9.5-0.3c1.4,0.8,2.8,1.7,4,2.7c4.4,3.4,7.5,7.8,9.6,12.9c1.4,3.5,2.6,7.2,3.8,10.8C405.1,226.2,405,227,404.9,227.6z
	 M444.8,241.7c-0.3-0.3-0.7-0.8-0.6-1.2c0.1-0.8,0.3-1.6,0.6-2.3c2.8-8.7,8.3-15.3,15.9-20.2c0.2-0.1,0.4-0.1,0.7-0.1
	c0.6,0.8,0.2,1.5-0.4,2c-1.3,1.4-2.7,2.7-4.1,4c-3.9,3.6-6.8,7.9-9,12.7c-0.2,0.3-0.3,0.7-0.4,1.2c2.8,3.3,3.4,2.5,5.4,10.1
	c0.9,0.1,1.1-0.8,1.5-1.2s0.8-0.9,1.3-1.2c0.2-0.1,0.6,0,0.8,0.1c0.2,0.1,0.4,0.5,0.4,0.7c0,0.3-0.1,0.6-0.3,0.8
	c-2.8,4.6-5.8,8.9-9.3,12.9c-0.8-0.2-0.8-0.6-0.7-1.2c0.1-1.3,0.8-2.2,1.5-3.3c2.2-3.5,2.5-7.1,1.2-11c-0.5-1.5-1.2-2.8-2.6-3.7
	c-0.2,0.1-0.5,0.2-0.7,0.4C445.7,241.6,445.3,242,444.8,241.7z M550.3,530.4c-1.4-3.8-2.6-7.6-4-11.4c-4.8-12.4-9.1-24.9-13-37.6
	c-5.7-18.5-10.5-37.2-15.1-55.9c-1.1-4.3-2.2-8.6-3.6-12.8c-2.5-7.7-7.1-14-13.8-18.6c-1.5-1-3-2-4.5-3c-0.7-0.4-1.3-0.9-2-1.3
	c-1.4-1-2.4-2.2-2.7-3.9c-0.6-3.4-2.8-5.4-5.7-7c-13-6.8-26.7-11.6-40.9-15.1c-3.4-0.8-6.6-0.4-9.2,2.1c-1.7,1.7-3.6,1.6-5.5,0.5
	c-0.5-0.3-1.1-0.6-1.6-0.9c-4.5-2.9-8.9-5.8-13.3-8.8c-2.6-1.8-5.5-3.1-8.6-3.4c-2.4-0.2-4.9-0.2-7.2,0.1c-2.9,0.4-5.6,0-8.2-1.3
	c-1.8-0.9-3.4-2.1-5.2-3c-1.3-0.7-2-1.8-2.3-3.3c-0.9-5-0.9-10-1-15c0-2,1-3.5,2.9-4.2c3.2-1.1,6-2.8,8.8-4.6
	c3.4-2.1,7.1-2.6,11-1.7c1.3,0.3,2.5,0.7,3.8,1c4.5,1.2,9.1,1.7,13.8,1.6c1.2,0,2.4-0.3,3.5-0.7c1.6-0.6,2.7-1.9,2.8-3.6
	c0.1-1.5,0-3-0.3-4.5s-0.9-2.9-1.3-4.3c-0.2-0.5-0.2-1.1-0.3-1.8c1.4-0.3,2.6,0,3.8,0c7.2,0.5,14.5,1,21.7,1.3
	c3.8,0.2,7.7,0,11.4-1.1c4.2-1.3,5.3-4.2,3.1-7.9c-1.1-1.8-2.5-3.4-3.9-5c-1.6-1.8-3.5-3.3-5.2-5c-0.6-0.6-1.2-1.3-2-2.1
	c1.1-0.7,2-1.3,3-1.9c17.8-10.5,34.1-22.9,49-37.1c6.1-5.8,11.6-12.2,16.4-19.3c0.7-1.1,1.4-2.2,2-3.4c1.6-3.5,1.2-6.8-0.9-10
	c-0.3-0.5-0.7-1-1.1-1.4c-4.2-4.7-8.7-9-13.9-12.5c-3.8-2.5-7.6-5-11.4-7.5c-0.5-0.4-1.1-0.8-1.8-1.3c1.1-0.8,2-1.5,2.9-2.1
	c3.3-2.4,6.5-5.1,9.3-8.1c1-1.1,1.9-2.3,2.5-3.8c0.7-1.9,0.3-3.6-1.2-4.9c-0.8-0.7-1.8-1.3-2.8-1.7c-1.4-0.5-2.9-1-4.3-1.3
	c-5.2-1.2-10.5-2-15.8-2.6c-3-0.3-6-0.6-9-1c-2.3-0.3-2.5-0.5-2.5-2.9c0-1.4,0-2.8,0-4.2c0.1-4.2,0.2-8.5,0.2-12.7
	c0-9.7-0.1-19.3-0.8-29c-0.5-7.9-0.8-15.9-1.4-23.8c-0.5-6.5-1.4-13-3-19.4C468,61.2,459.7,49,446.6,40.4c-3.4-2.3-7-4.5-10.6-6.3
	c-8.2-4-16.5-7.9-24.8-11.7c-8-3.6-16.2-6.7-24.5-9.2C376.4,10,365.8,7.8,355.1,7c-7.8-0.6-15.7-0.8-23.5-0.3
	c-9.6,0.6-19,2.1-28.1,5.1c-17.5,5.8-34.3,13.4-49.9,23.4c-9.3,6-18.3,12.5-26.1,20.5c-4.6,4.7-7.3,10.3-8.5,16.7
	c-1.1,6-1.7,12.1-1.9,18.3c-0.2,5.3-0.5,10.7-0.7,16c-0.1,3.8-0.1,7.6-0.2,11.5c0,1.2,0,2.4-0.1,3.6c-0.5,4.7-0.8,9.4-0.2,14.2
	c0.2,1.6,0.3,3.2,0.5,4.8c0.3,2.8-0.1,5.4-1.8,7.7c-0.7,1-1.4,2-2.2,2.9c-2.3,2.5-4.1,5.2-5.9,8c-0.7,1.2-1.5,2.4-2.2,3.6
	c-0.9,1.5-2,2.5-3.7,2.8c-0.7,0.1-1.4,0.4-2,0.7c-3.2,1.5-4,5-1.7,7.8c1,1.2,2.1,2.2,3,3.4c2.5,2.8,4.8,5.7,7.9,7.9
	c0.4,0.3,0.7,0.9,1.1,1.5c-1.1,1.2-2.1,2.3-3.1,3.4c-2.5,2.7-5.2,5.4-7.6,8.1c-3.7,4.2-7,8.8-9.6,13.9c-0.6,1.1-1.1,2.2-1.5,3.3
	c-2,5.2-1.5,10.1,1.6,14.6c3.4,5,7.5,9.5,12.3,13.3c5.1,4.1,10.4,8,15.5,12c0.7,0.5,1.6,0.9,1.8,1.8c-0.7,1-1.8,1.1-2.6,1.5
	c-1.4,0.6-2.7,1.3-3.7,2.5c-1.6,1.9-1.6,3.6-0.1,5.5c0.4,0.5,0.9,1.1,1.5,1.5c1.2,0.9,2.4,1.8,3.7,2.6c7.2,4.3,14.4,8.5,22.1,11.8
	c0.6,0.2,1.1,0.5,1.6,0.8c1.9,1.1,3.2,2.8,3.8,4.9c0.2,0.7,0.4,1.4,0.5,2.1c1.1,7,4.6,12.6,10,17.1c2.3,1.9,4.7,3.8,7,5.7
	c12.1,9.5,25,17.6,39.1,23.7c3.9,1.7,3.2,1,5.1,5.3c1.3,3,1.5,6.1,0.6,9.2c-0.3,1.1-1,2.2-1.6,3.2c-0.6,0.9-1.5,1.4-2.6,1.3
	s-2.2-0.2-3.3-0.3c-3.8-0.3-7.4,0.2-10.6,2.5c-1,0.7-2,1-3.1,0.9c-0.6,0-1.2,0-1.8-0.1c-5.2-0.3-10.2,0.7-15,2.7
	c-5.8,2.4-11.4,5-17,7.9c-4,2.1-8,4.2-11.9,6.5c-5.1,2.9-9.7,6.5-13.3,11.2c-1.2,1.5-2.5,2.5-4.2,3.3c-4.9,2.2-8.9,5.5-12,9.8
	c-2.6,3.7-4.8,7.6-6.2,12c-4.6,14.3-9.3,28.5-13.9,42.8c-5.1,15.7-10.1,31.4-16.3,46.7c-1.4,3.4-2.5,7-3.5,10.6
	c-1.4,5-0.6,7,3.6,10.1c4,2.9,8.2,5.4,12.7,7.6c0.6,0.3,1.3,0.6,1.9,1c1.7,0.9,2.5,2.3,2.6,4.1c0,0.6,0.1,1.2,0,1.8
	c-0.2,7.8-0.4,15.5-0.7,23.2c-0.1,3.1-0.3,6.2-0.5,9.3c-0.2,3.4-0.9,6.6-3,9.4c-2.3,3.1-4,6.5-5.7,9.9c-1.4,2.9-2.2,6-2.2,9.3
	c0,2.8,0.1,5.6,0,8.5c0,3.6,0.9,7,2.3,10.2c1.7,3.7,3.4,7.3,5.1,10.9c2.4,4.8,5.3,9.3,8.7,13.3c2.8,3.2,5.7,6.2,9.6,8.1
	c2.6,1.3,5.2,2.1,8,2.1c1.9,0,3.8-0.1,5.7,0c1.1,0,2.2-0.2,3.2,0.4c0.4,0.9,0,1.6-0.3,2.3c-3.2,8.6-6.4,17.1-9.6,25.7
	c-0.5,1.2-0.8,2.5-1.3,3.9c0.6,0.4,0.9,0.6,1.3,0.8c5.5,2,11,3.9,16.5,5.9c0.6,0.2,1.2,0.4,1.8,0.3c1.3-0.2,2.4,0.4,3.5,0.7
	c5.3,1.7,10.5,3.4,15.8,4.9c7.6,2.1,15.3,3.5,23,4.9c8.6,1.5,17.2,3.2,25.9,4.5c9.2,1.4,16.2,2.5,25.7,3.4
	c7.5,0.7,16.7,1.3,35.3,2.4c1.3,0.1,3.9,0.1,7.2,0.4c7.8,0.7,15.7,1.1,23.5,1.2c3.5,0,5.3,0.2,7.5,0.2c16.3,0.3,28.2-0.8,30.7-1
	c5.9-0.5,5.6-0.7,14.1-1.5c5.5-0.6,11-1.3,16.5-1.3c6.2,0,12.5,0,18.7,0c0.9,0,1.8,0.3,2.8-0.7c-0.1-1.5-0.2-3.2-0.4-4.9
	c-0.1-1.5-0.3-3-0.4-4.5c-0.1-1.7,0-3.4-0.1-5.1c-0.5-7.9-0.9-15.9-1.4-23.8c-0.2-3.4-0.5-6.8-0.8-10.2c0-0.5-0.2-1,0.6-1.4
	c0.9,0.6,1.9,1.2,2.8,1.9c4.7,3.5,10.1,5.8,15.4,8.2c2.3,1,4.8,1.6,7.4,0.9c4.3-1.1,8.5-2.4,12.2-5.1c5.8-4.3,10.1-9.8,13.1-16.3
	c5.1-10.9,7.4-22.5,7.2-34.5c-0.2-9.1-2.9-17.4-8.3-24.8c-0.8-1.2-1.3-2.4-1.6-3.8c-1.9-10.1-4.2-20.1-7.1-29.9
	c-0.2-0.7-0.4-1.4-0.5-2c-0.2-0.8,0.2-1.4,0.9-1.7c0.9-0.4,1.9-0.7,2.8-1c6.8-2.1,13.5-4.8,19.9-7.8c2.5-1.2,4.8-2.5,6.7-4.6
	C550.7,536,551.4,533.4,550.3,530.4z M489.7,391.8c0.8,0.4,1.7,0.8,2.5,1.2c10.7,6,17.4,15,20.6,26.7c1.2,4.7,2.2,9.4,3.3,14.1
	c3.8,16.3,8.4,32.3,13.2,48.3c0.3,1,0.6,1.9,0.8,2.9c0,0.2,0,0.4,0,0.7c-0.5,0.9-1.5,0.9-2.3,1.2c-9.5,3.1-19.1,5.6-28.9,7.5
	c-7.4,1.5-14.9,2.6-22.4,3.5c-2.9,0.3-5.8,0.4-8.7,0.6c-0.2,0-0.4-0.1-1-0.3c0-0.6,0-1,0-1.5c0.3-2.7,0.6-5.4,1-8.1
	c0.3-2.8,0.2-5.6-1.2-8.2c-0.6-1-0.5-1.8,0-2.8c3.8-8.1,8.1-16,13.4-23.3c1.9-2.6,3.9-5.1,5.8-7.7c0.5-0.7,1-1.4,1.5-2
	c-0.1-0.4-0.1-0.7-0.2-0.8c-1.4-1.1-1.8-2.6-2.1-4.2c-0.6-3.1-1.2-6.1-1.8-9.2c-1.2-7-0.6-14,0.8-21c1-5.1,2.5-10.1,4.1-15.1
	C488.4,393.3,488.5,392.4,489.7,391.8z M487.3,393.1c-2.8,8.3-5,16.8-5.8,25.5c-0.3,4,0,8,0.6,12c0.5,3.4,1.3,6.7,2,10
	c0.2,1.1,0.7,2.1,1,3.2c-1.6,2-3.3,4-4.8,6c-1.6,2.1-3.1,4.2-4.6,6.3c-1.4,2.1-2.8,4.2-4,6.4c-1.3,2.3-2.5,4.6-3.8,6.8
	c-1.3,2.3-2.1,4.7-3.7,7c-0.6-0.3-1.1-0.5-1.4-0.8c-2.4-2-4.8-3.9-7.3-5.9c-1.9-1.5-2-1.7-1.3-4.1c3.4-11.1,6.8-22.3,10.3-33.4
	c3.9-12.4,8.2-24.6,13.1-36.6c0.5-1.1,0.9-2.2,1.4-3.3c0.8-1.7,2.1-2.7,4.1-2.5c1.2,0.1,2.4,0,3.6,0.2c0.5,0,0.9,0.3,1.5,0.6
	C487.9,391.5,487.6,392.3,487.3,393.1z M479.9,380.2c1.5,0.7,2.8,1.5,4.3,2.2c2.1,1,3.2,2.6,3.7,5c-0.9-0.1-1.6-0.1-2.4-0.2
	c-4.7-0.6-7.2,0.6-9.1,5s-3.6,8.9-5.3,13.4c-6.2,16.3-11.3,32.9-16.3,49.5c-0.9,2.9-1.7,5.8-2.6,8.7c-0.3,0.7-0.7,1.4-1.2,2.5
	c-1.9-1.4-3.4-2.5-5.1-3.7c0.5-1.8,1.1-3.6,1.6-5.4c5.7-19.6,11.9-39,19.3-58c2.3-6,5-11.9,8.7-17.2c0.6-0.9,1.3-1.8,2-2.7
	C478.4,379.7,479.2,379.8,479.9,380.2z M438.6,369c1.1-1.2,2.5-1.7,4.1-1.6c0.8,0.1,1.6,0.1,2.4,0.3c10.1,2.7,20.1,5.8,29.6,10.2
	c0.5,0.2,0.9,0.5,1.5,0.8c-0.3,0.6-0.4,1.1-0.8,1.6c-3.6,4.9-6.3,10.3-8.5,15.9c-6.9,17.4-12.8,35.2-18.1,53.1c-1,3.5-2,7-3.1,10.4
	c-0.2,0.7-0.5,1.3-0.8,1.9c-1.3,0-2-0.8-2.8-1.3c-6.5-4-13-8.1-19.5-12.1c-2.7-1.6-5.2-3.4-8.7-3.5c0.3-1.2,0.5-2.1,0.7-3.1
	c4.5-17.7,9.8-35,15.8-52.3c1.8-5.2,3.6-10.5,5.3-15.7C436.3,371.8,437.3,370.3,438.6,369z M429,372.8c0.1-0.7,0.3-1.3,0.5-2
	c0.5,0,0.8,0,1,0c1,0.2,1.9,0.5,2.8,0.7c0.7,1,0.1,1.7-0.2,2.4c-5.3,15-10.4,30-14.8,45.3c-2.3,7.9-4.5,15.9-6.5,23.9
	c-0.7,2.7-1.9,4.8-4.7,6c-12.4-14-24.8-28.1-37.2-42.1c0.2-0.7,0.8-0.6,1.2-0.8c0.5-0.2,1-0.3,1.4-0.5c9.8-3,19.6-6,29.4-9.1
	c3.5-1.1,7-2.6,10.3-4.2c3.4-1.5,6.5-3.6,9.3-6.2C425.5,382.5,428.2,378.2,429,372.8z M399.8,451.4c-3.9-1.1-7.6,0.5-9.3,4.1
	c-0.5,1.1-0.8,2.3-1,3.5c-0.6,5-0.4,10,1.7,14.8c1,2.1,1.6,4.3,2.4,6.5c0.4,1,0.2,1.8-0.4,2.5c-1.1,1.4-2.4,2-4.2,2
	c-5.6,0.1-11.3,0.3-16.9,0.3c-4.4,0-8.9-0.3-13.3-0.4c-0.8,0-1.6,0-2.4,0.1c-1.4,0.2-2,1.5-1.2,2.7c0.3,0.4,0.6,0.8,0.9,1.2
	c5.7,7.3,8.7,15.6,9.2,24.8c0.6,8.8-1,17-5.5,24.6c-2.1,3.5-4.6,6.6-7.5,9.4c-0.6,0.5-1.2,1.1-1.7,1.7c-0.8,1-0.2,2.3,1.1,2.5
	c0.3,0,0.6,0.1,0.9,0.1c10.1,0.3,20.1,0.6,30.2,0.8c2.2,0,4.4-0.1,6.6-0.2c0.5,0,1,0,1.5,0c1.9,0.1,2.5,0.6,2.7,2.5
	c0.2,2.2,0.3,4.4,0.4,6.6c0.3,4.9,1.3,9.8,2.8,14.5c0.4,1.4,0.5,2.5-0.5,3.7c-1.1,1.4-1.3,3.2-1.3,4.9c-0.2,3.3-0.2,6.6-0.3,10
	c0,0.9,0.2,2-0.9,3c-0.9,0-2.1,0.1-3.3,0.1c-14.1,0.1-28.2,0-42.3-0.8c-11.5-0.7-23.1-1.4-34.7-2.1c-5-0.3-10-0.5-15.1-0.8
	c-8.7-0.5-17.5-1.3-26.1-2.9c-0.4-0.1-0.8-0.1-1.2-0.2c-1.6-0.3-2.8-1-2.9-2.9c-0.1-1.2-0.6-2.3-1.4-3.3c-1.3-1.5-1.8-3.4-1.9-5.3
	c-0.1-0.9-0.1-1.8-0.1-2.7c0-4.4,0-8.8-0.1-13.3c0-4,1.4-7.3,4.2-10c1.2-1.1,2.5-1.5,4.1-1.4c8.9,0.7,17.9,0.7,26.9,0.5
	c1.3,0,2.6,0,3.9,0c0.5,0,1,0,1.5-0.2c0.9-0.2,1.3-1.5,0.7-2.2c-0.4-0.4-0.9-0.8-1.4-1.1c-6.1-3.7-10.3-8.9-12.8-15.6
	c-3.2-8.8-4-17.8-2.3-27c1.3-7,4.6-13,9.6-18.2c0.6-0.6,1.3-1.3,1.8-2s0.3-1.8-0.5-2.1c-0.8-0.3-1.7-0.5-2.6-0.6
	c-6.4-0.3-12.9-0.5-19.3-0.8c-1.3,0-2.6-0.2-3.9-0.4c-0.6-0.1-1.2-0.3-1.7-0.6c-1-0.5-1.4-1.5-0.9-2.5c0.3-0.6,0.7-1.2,1.1-1.8
	c1.3-1.8,2.6-3.6,3.9-5.4c2.4-3,3-6.4,1.4-9.9c-1.7-3.7-4.8-5.6-8.8-6c-3-0.3-6.1-0.1-8.8,1.4c-1.3,0.7-2.5,0.7-3.5-0.5
	c-3.3-1.2-4.1-3.8-4.1-7c0.2-18.3,1.6-36.4,5.3-54.3c0.2-1.1,0.5-2.1,0.8-3.2c0.2-0.6,0.5-1.1,0.9-1.6c6.9-1.3,13.4-3.7,20.3-4.7
	c0.8,0.7,1.5,1.4,2.2,2c5.3,5,10.6,9.9,16.3,14.4c2.5,1.9,5,3.7,7.5,5.5c0.8,0.6,1.6,0.8,2.5,0.1c0.1-0.1,0.1-0.3,0.3-0.7
	c-1.1-1.1-2.5-1.8-3.8-2.8c-1.4-1.1-2.7-2.1-4.1-3.1c-1.3-1-2.5-2-3.7-3.1c-1.3-1.1-2.6-2.2-3.9-3.4c-1.2-1.1-2.4-2.2-3.6-3.2
	c-1.3-1.2-2.5-2.3-3.8-3.5c-1.1-1.1-2.5-2-3.5-3.5c0.5-0.6,0.9-1.2,1.4-1.6c5.6-4,11.8-6.9,18.8-8.1c2.9,2.2,5.8,4.3,8.6,6.5
	c1.4,1,2.7,2.1,4,3.2c6.7,5.1,14.3,6.8,22.5,5.5c3.6-0.5,7.1-1.3,10.5-1.9c6.3,4.4,11.3,9.9,16.7,15.4c-0.5,0.3-0.9,0.7-1.3,0.8
	c-4.6,1.2-9.1,2.3-13.7,3.6c-3.5,0.9-7,2-10.4,3c-0.6,0.2-1.2,0.6-1.7,1.2c2-0.2,4-0.4,6-0.7c4.2-0.6,8.3-1.4,12.4-2.6
	c3.5-1,7-1.7,10.6-2.6c1,1,1.9,1.9,2.8,2.9c9.9,11.1,19.8,22.3,29.7,33.4c1.3,1.4,2.5,2.9,3.8,4.3c0.7,0.8,1.4,1.5,1.5,2.5
	c-1.6,2.1-2.3,2.5-4.5,1.8C400.8,451.8,400.3,451.6,399.8,451.4z M400.4,456.5c-0.2,0.6-0.5,1.1-0.7,1.7c-1.8,4-3.6,8-5.4,12
	c-0.2,0.3-0.4,0.7-0.8,1.4c-1.1-1.7-1.5-3.2-1.5-4.8c-0.1-2.6-0.1-5.2,0.1-7.8c0.3-3.4,2.7-5.6,5.9-5.7
	C400.3,453.3,401.1,454.3,400.4,456.5z M386.5,505.4c0.3,2.3,0,4.3-0.9,6.4c-2.2,5-2.3,10.1-0.6,15.3c1.3,3.9,3.2,7.4,5.5,10.7
	c0.4,0.6,1.1,1.2,1.7,1.6c1.6,1.1,2.3,2.5,2.1,4.4c-0.2,1.9-0.5,3.8-0.7,5.8c-1,0.9-2.3,0.6-3.4,0.6c-7.6,0-15.3,0-22.9-0.2
	c-3.9-0.1-7.8-0.4-11.6-0.6c-0.4-0.7,0-1.1,0.3-1.5c1.4-1.8,3-3.5,4.3-5.5c5.9-8.6,8.4-18.2,7.8-28.6c-0.5-8.6-3.1-16.6-7.7-23.8
	c-0.3-0.5-0.6-1-0.9-1.5c0-0.1,0-0.2-0.1-0.6c2.5-0.4,27.9-0.4,30.7,0c-0.1,0.6-0.2,1.1-0.4,1.7c-0.5,1.5-1,3.1-1.6,4.5
	C386.4,497.7,386,501.5,386.5,505.4z M413.2,548.8c0.2,3.6,0.5,7.2,1.1,10.8c1,6.3,3.9,11.6,8.7,15.8c1.1,1,1.8,2.1,2,3.6
	c0.8,5.9-0.5,11.4-2.8,16.7c-5.4,1.2-9.9-0.1-13.6-4.1c-3.5-3.8-6.1-8.2-8-13c-2-5-3.1-10.2-3.7-15.5c-1.3-10.5-0.3-20.9,1.5-31.2
	c0.3-1.7,0.6-3.4,1-5c0.1-0.4,0.3-0.7,0.6-1.4c0.8,0.3,1.4,0.4,1.9,0.7c3.7,1.7,7,3.8,10.3,6.2c1.4,1,1.9,2.2,1.6,3.9
	C412.9,540.3,413,544.5,413.2,548.8z M426.1,579.3c0-0.3,0.1-0.6,0.2-1c0.5,0.2,0.8,0.4,1.1,0.6c2.1,1.4,4.2,2.8,6.2,4.2
	c1.1,0.7,1.3,1.2,0.9,2.2c-1.7,4.8-4.6,8.4-9.7,9.9c-0.2,0-0.4,0-0.8,0c0-0.6,0-1.1,0.2-1.7c0.5-2.1,1.2-4.2,1.6-6.4
	C426.3,584.5,426.4,581.9,426.1,579.3z M468.5,650.5c-5.3,1.2-16.5,2.8-18.7,2.6c-0.4-0.7-0.8-1.5-1.2-2.3c-3.4-7.5-6.3-15.2-9.2-23
	c-0.5-1.2-0.5-2.3,0.3-3.4c2.5-3.8,3.1-8,2.6-12.4c-0.6-5.2-1.1-10.4-1.7-15.8c2.4-0.7,2.9-0.5,3.7,1.2c0.2,0.4,0.3,0.8,0.4,1.1
	c4.3,12.6,9.9,24.6,15.6,36.6c2.3,4.7,4.9,9.2,8.2,13.4c0.3,0.4,0.5,0.8,0.8,1.3C469,650.2,468.8,650.5,468.5,650.5z M469.6,652.8
	c0.5-0.1,1-0.1,1.5-0.1c1.1,0,1.6,0.4,1.9,1.5c0.2,0.7,0.3,1.4,0.4,2.1c0.4,4.9,0.9,9.8,1.2,14.7c0.5,8.4,1,16.8,1.4,25.3
	c0,1.1,0.3,2.1-0.2,3.3c-3.2-3.3-13.3-20.7-21.5-37c-1-2-2.3-4-2.8-6.4c0.5-0.2,0.8-0.5,1.2-0.5C458.3,654.7,464,653.7,469.6,652.8z
	 M439.8,592.5c-0.7-1.5-1.6-2.8-2.7-4c-0.3-0.3-0.5-0.9-0.6-1.3c-0.1-0.7,0.2-1.4,0.8-1.8c0.5-0.4,1.1-0.4,1.7-0.1
	c0.9,0.4,1.5,1.1,1.8,1.9c0.7,1.9,1.3,3.8,1.9,5.8C441.3,593.7,440.3,593.6,439.8,592.5z M437.4,593.7c0.5,1.5,0.8,3.1,1,4.7
	c0.6,4.7,1.2,9.4,1.6,14.1c0.2,1.8,0.1,3.6-0.1,5.4c-0.8,5.3-4.1,8.7-9.3,9.8c-1.1,0.2-2.2,0.2-3.3,0.3c-0.6,0-1.3,0-2.2-0.1
	c0.4-0.5,0.5-0.7,0.7-0.9c2.1-1.5,3.2-3.6,3.5-6.1c0.6-4.4,1.2-8.8,1.2-13.2c0-0.9,0-1.8-0.1-2.7c-0.2-2.8-1.2-5.3-3.7-6.9
	c-0.1-0.1-0.2-0.3-0.3-0.7c3.4-1.6,6.4-3.6,8.4-6.8C436.6,591.6,436.8,591.8,437.4,593.7z M262.6,556.3c0.1,9.9,0.1,19.7,0.2,29.6
	c0,1.9-0.1,3.8-0.6,5.7c-1.9,6.4-9.1,11.3-16,9.5c-2.1-3.5-3.1-7.2-3.4-11.2c-0.4-4.9-0.1-9.8,0.3-14.8c0.7-7.9,1.5-15.8,2.3-23.7
	c0.1-1,0.3-2,0.4-3c0.3-1.9,1.5-3,3.2-3.7c0.4-0.2,0.8-0.2,1.2-0.3c3.4-0.8,6.8-1.7,10.3-2.5c0.5-0.1,1-0.2,1.3-0.3
	c1,0.7,0.9,1.7,0.9,2.5C262.6,548.3,262.6,552.3,262.6,556.3z M243.2,562.8c-1.1,7.6-1.5,15.2-1.7,22.8c-0.1,4.6,0.6,9,2.3,13.3
	c0.1,0.3,0.1,0.6,0.2,1.1c-0.4,0.1-0.6,0.2-0.8,0.1c-4.6-1.8-7.9-5-8.9-9.9c-0.8-3.7-0.9-7.6-1.3-11.3c-0.1-0.8,0.1-1.6,0.7-2.2
	c4.2-4.7,7-10.3,9-16.2c0.1-0.2,0.2-0.3,0.5-0.6C243.5,560.9,243.3,561.9,243.2,562.8z M235.6,609.5c0.2-2.7,0.5-5.4,0.8-8.1
	c0.1-0.6,0.3-1.1,0.5-1.9c2.2,1.2,4.3,2.4,6.4,3.5c-0.3,2.5-0.7,5-1,7.5c-0.2,2.6-0.2,5.2,0.4,7.8c0.6,2.4,1.3,4.8,2,7.4
	c-2-0.1-3.5-1-4.9-2.3c-2-1.7-3-4-3.6-6.5C235.6,614.5,235.4,612,235.6,609.5z M243.4,615.6c-0.3-3.3,0-6.6,0.6-9.9
	c0.4-1.8,0.6-2.1,2.3-1.9c2.4,0.3,4.6-0.2,6.8-0.7c2.3-0.6,4.3-1.5,6.3-2.9c3.5-2.5,5.5-5.8,5.9-10c0.1-0.6,0.1-1.2,0.2-1.8
	c0-0.1,0.1-0.1,0.4-0.7c0.8,1.8,0.8,3.3,0.8,4.7c-0.2,9.4-1.2,18.6-3.3,27.8c-0.3,1.1-0.6,2.1-1,3.2c-0.7,2-2.2,3.2-4.3,3.3
	c-3.2,0.2-6.4,0.1-9.6,0c-1.4,0-2.1-0.8-2.7-2C244.5,621.7,243.6,618.8,243.4,615.6z M258.1,636.5c1.1-2.5,2.2-5,3.4-7.4
	c0.4-0.9,0.9-1.8,1.6-2.5c1.4-1.3,2.1-3,2.4-4.8c0.7-3.8,1.4-7.5,2-11.3c0.8-5.1,1.3-10.2,1.4-15.3c0-0.5,0.1-1,0.2-1.5
	c0-0.2,0.2-0.3,0.5-0.7c3.8,0.6,7.4,1.3,11.1,1.7c5,0.6,10,1.1,15,1.5c4.4,0.4,8.8,0.5,13.3,0.8c8.8,0.5,17.7,1.1,26.5,1.6
	c4,0.2,8,0.5,12,0.7c14.6,0.7,29.2,1.1,43.8,0.8c0.9,0,1.8,0,2.7,0.1c0.2,0,0.3,0.2,0.7,0.4c0.1,0.3,0.3,0.8,0.3,1.3
	c0.3,2.9,0.7,5.8,1,8.7c0.6,5.9,3.5,10.2,8.8,12.9c0.5,0.3,1.1,0.5,1.6,0.8c3.8,1.7,6.4,4.5,7.9,8.3c0.4,0.9,0.8,1.9,1.1,2.8
	c1.8,6.3,4.2,12.4,6.5,18.5c0.4,1.1,1.2,2.2,0.7,3.6c-0.7,0.1-1.5,0.2-2.3,0.2c-13.4,0-26.8,0.1-40.1-0.2c-8.3-0.2-16.7-0.9-25-1.6
	c-7.2-0.6-14.4-1.3-21.6-2c-7-0.7-14-1.4-21-2.1c-2.2-0.2-4.4-0.3-6.6-0.6c-5.9-0.7-11.8-1.6-17.6-2.3c-3.2-0.4-6.4-0.8-9.6-0.8
	c-3.8,0-7.6-0.5-11.3-1.3c-2.6-0.6-5.3-1.1-8-1.6c-0.6-0.1-1.2-0.2-1.8-0.3c-1.7-0.5-2.6-1.4-1.7-3.3
	C256.7,639.8,257.4,638.1,258.1,636.5z M409,623.3c-2.7-1.6-5.1-3.5-7.4-5.6c-1.5-1.4-2.6-3.1-2.9-5.2c-1.4-10-2.3-20-0.6-30
	c0-0.3,0.3-0.5,0.6-1.3c1,1.8,1.8,3.2,2.6,4.5c1.1,1.8,2.1,3.7,3.4,5.3c4.2,5.5,9.8,8.2,16.8,7.4c0.5,0,1-0.1,1.5-0.1
	c2.6,0,4.7,1.4,5.5,3.8c0.4,1.3,0.6,2.7,0.7,4.1c0.2,3.8-0.3,7.6-0.8,11.4c-0.1,1.1-0.3,2.2-0.5,3.3c-0.5,4.5-4.8,7-8.7,6.2
	C415.7,626.4,412.2,625.2,409,623.3z M281.8,518.8c-0.3-1.6-0.8-3.1-1.3-4.6c-1.5-4.2-2.2-8.6-2.7-13c-0.5-4.3-1-8.6-2-12.8
	c-0.2-1-0.5-1.9-0.8-3.1c7.3-0.1,14.3,0.7,21.3,0.8c0.4,0,0.7,0.2,1.3,0.3c-0.5,0.7-0.9,1.3-1.3,1.8c-6.5,7.7-9.7,16.6-9.6,26.7
	c0,5.5,0.6,10.8,2.1,16.1c2,6.8,5.5,12.7,11.1,17.3c0.5,0.4,0.9,0.8,1.7,1.4c-5.3,0.8-25.4,0.5-29-0.5c0-0.3,0-0.6,0.2-0.8
	c2-3.3,3.6-6.8,5-10.3c1-2.6,2-5.3,3.1-7.8C282.5,526.6,282.6,522.7,281.8,518.8z M270.3,477.9c-1.3-2-1.9-4-2.9-5.8
	c-0.9-1.9-1.9-3.8-2.9-5.6c-1-1.9-2-3.7-3-5.4c0.4-1.3,1.3-1.5,2.2-1.6c2.4-0.4,4.8-0.5,7.2-0.2c0.9,0.1,1.8,0.4,2.6,0.8
	c3.6,1.8,4.8,5.2,3.1,8.9C275.1,472.2,272.9,475,270.3,477.9z M403.3,356.8c2.3-0.2,4.4,0.2,6.4,1.2c5.5,2.9,10.6,6.5,15.7,10.1
	c1.3,0.9,1.7,2.2,1.5,3.7c-0.1,0.6-0.3,1.2-0.4,1.8c-1.5,5.1-4.4,9.2-8.5,12.5c-2.6,2.1-5.5,3.6-8.6,4.9c-7.3,3.1-14.9,5.6-22.5,7.8
	c-5.6,1.6-11.2,3.2-16.8,4.8c-0.8,0.2-1.5,0.3-2,0.5c-1.3-1.2-2.4-2.2-3.5-3.2s-2.1-2.1-3.2-3.2c-1-1-2-2-3-3c-1.1-1-2.2-2-3.4-3
	c-1.1-1-2.3-1.8-3.7-3c1.1-0.7,2.1-0.9,3-1.2c3.6-1,7.2-2,10.7-3.1c12-3.8,22.9-9.8,32.2-18.4c1.6-1.5,3.2-3.1,4.6-4.7
	c1.1-1.3,1-1.6,0.1-3.2c-0.1-0.2-0.2-0.4-0.3-0.7C402.3,357.2,402.8,356.9,403.3,356.8z M495,174.3c3.1,0.4,6.1,1.1,9.2,1.8
	c0.9,0.2,1.7,0.5,2.8,0.9c-0.3,0.6-0.5,1.1-0.8,1.4c-0.8,0.7-1.7,1.4-2.6,2c-5.2,3.6-11,6.4-16.8,8.9c-1.2,0.5-2.4,0.7-4,1.1
	c1.1,0.7,2,1.2,2.8,1.7c5.4,3.1,10.9,6,16.3,9.2c6.6,4,12.6,8.6,17.9,14.2c1.1,1.2,2.2,2.4,3.1,3.7c1.2,1.7,1.3,3.6,0.4,5.4
	c-0.5,1.1-1.1,2.1-1.8,3.1c-4.6,7.1-10,13.4-16.2,19.1c-11.9,10.9-24.4,21-37.9,29.8c-2,1.3-4,2.3-6.3,2.8
	c-4.5,1.2-8.9,2.4-13.4,3.6c-0.6,0.2-1.1,0.4-1.9,0.7c1,1.7,2.2,2.6,3.4,3.5c5.4,4.4,10.7,8.8,14.9,14.4c0.1,0.2,0.1,0.4,0.3,0.8
	c-1.2-0.2-2-1.1-2.8-1.7c-0.9-0.6-1.8-1.3-2.7-1.9c-0.9-0.6-1.8-1.2-2.8-1.8c-0.9-0.6-1.9-1.2-2.8-1.7c-1-0.6-1.9-1.1-2.9-1.6
	c-1.1-0.6-2.1-1.1-3.2-1.7c-1-0.5-2-1-3-1.5s-2-0.9-3-1.4s-2-0.9-3-1.3s-2-0.9-3.1-1.3c-1-0.4-2.1-0.8-3.1-1.2c-1-0.4-2.2-0.4-3-1.6
	c0.1-0.4,0.2-1,0.5-1.6c1-2.4,2-4.8,3.1-7.2c0.6-1.3,1-1.6,2.4-1.2c4.2,1.2,8.1,0.3,12-1.4c13.3-6,21.2-16.3,23.7-30.6
	c0.7-4.2,1.1-8.4,1.6-12.6c0.4-3.5,0-7-0.9-10.5c-0.6-2.5-1.7-4.7-3.4-6.6c-3.5-4-7.9-5.3-13.1-4.1c-3.2,0.8-5.9,2.6-8.2,4.9
	c-1.1,1.1-2,2.2-3.1,3.3c-0.3,0.3-0.7,0.6-1.1,0.9c-0.8-0.7-0.5-1.6-0.5-2.4c-0.1-7.6-0.3-15.3-0.4-22.9c0-1.1-0.1-2.2-0.1-3.3
	c0.1-3.9-0.5-7.6-2.2-11.1c-1.2-2.5-0.6-4.5,1-6.4c0.9-1.1,1.8-2.1,2.7-3.3c0.8-1,1.7-1.2,2.9-0.9c2.9,0.7,5.9,1.3,8.8,2.1
	c4.1,1.2,8.2,1.9,12.5,2.3C476.2,171.9,485.6,172.9,495,174.3z M433,37.3c7.5,3.8,14.6,8.1,20.5,14.2c7.9,8.2,12.7,18,15.1,29.1
	c1,4.4,1.5,8.9,1.8,13.4c0.5,7.2,1.2,14.4,1.5,21.7c0.4,8.8,0.7,17.7,0.8,26.5c0.1,8.5-0.1,17.1-0.1,25.7c0,0.2-0.1,0.4-0.2,0.7
	c-0.9,0.6-1.9,0.5-2.6-0.4c-0.5-0.5-0.8-1.1-1.2-1.8c-3.7-6.6-9-11.6-15.5-15.3c-5.1-2.9-10.2-5.7-15.3-8.5
	c-0.4-0.2-0.8-0.5-1.4-0.9c0-1.6-0.2-3.2-0.1-4.8c0.8-14.6,1.1-29.2,0.7-43.8c-0.2-7.3-0.9-14.7-1.4-22c-0.4-5.1-0.8-10.2-1.4-15.3
	c-0.6-5.8-1.4-11.6-2.1-17.4c0-0.4-0.1-0.8-0.1-1.2C432.5,37.4,432.8,37.2,433,37.3z M242.3,115.9c0-10.9,0.1-21.7,0.2-32.6
	c0.1-9.3,0.4-18.5,0.5-27.8c0-0.8-0.1-1.6-0.1-2.4c-0.1-3.1,0.9-5.7,3.2-7.9c1-1,2.1-1.9,3.3-2.6c12.6-8,25.5-15.4,39.3-21.2
	c12-5.1,24.5-8.5,37.5-10c9.7-1.2,19.5-1.3,29.2-0.4c15.6,1.4,30.5,5.4,44.8,11.4c8.5,3.6,17,7.4,25.4,11.1c0.3,0.1,0.5,0.3,0.8,0.4
	c2.6,0.9,3.8,2.5,3.7,5.4c-0.1,1.9,0.5,3.8,0.7,5.7c0.8,6.7,1.6,13.4,2.2,20.1c0.6,7.2,1.2,14.4,1.5,21.7c0.3,7.4,0.5,14.9,0.5,22.3
	c-0.1,9.4-0.5,18.7-0.7,28.1c0,0.9-0.2,1.8-0.2,2.6c-0.9,0.5-1.5,0-2.1-0.2c-3.3-1.4-6.6-2.9-10-4.3c-13-5.6-26.3-9.9-40-13.4
	c-1.3-0.3-2.5-0.6-3.8-0.9c-0.1,0-0.1-0.1-0.3-0.3c0.2-0.4,0.4-0.8,0.7-1.2c3.6-4.4,6.4-9.2,9-14.3c1.3-2.6,2.6-5.2,3.9-7.8
	c0.3-0.6,0.6-1.3,0.8-2c0.2-0.8,0-1.6-0.8-2.1c-0.6-0.4-1.2-0.8-1.8-1.1c-2.7-1.6-5.4-3.1-8.1-4.7c-0.4-0.2-0.7-0.4-1.1-0.6
	c-1.4-0.6-2.6-0.3-3.4,1c-1.2,2-2.3,4-3.4,6c-0.3,0.5-0.5,1.1-0.8,1.6c-1.5,3-3.9,4.8-7.1,5.5c-1.2,0.3-2.4,0.5-3.6,0.6
	c-15.5,1.4-30.9,2-46.4,1.2c-3.7-0.2-7.4-0.7-11.1-0.9c-2-0.1-3.4-1-4.7-2.4c-2.9-3.3-5.9-6.6-8.9-9.9c-0.3-0.3-0.5-0.6-0.8-0.9
	c-2.4-2.6-3.2-2.7-6.1-0.5c-2.3,1.8-4.7,3.5-7,5.2c-0.6,0.4-1.2,0.8-1.7,1.3c-1.2,1.1-1.4,2.1-0.5,3.5c3.6,5.7,6.8,11.7,11.2,16.8
	c0.5,0.6,0.9,1.2,1.6,2.2c-3.1,0.5-5.7,1-8.3,1.4c-2.5,0.5-5,0.9-7.4,1.4c-2.5,0.5-5.1,1.2-7.6,1.8c-2.5,0.7-5,1.4-7.5,2.3
	c-2.4,0.8-4.7,1.7-7.1,2.6c-2.4,0.8-4.6,2.4-7.4,2.9c0-0.7-0.1-1.2-0.1-1.6C242.3,123.9,242.3,119.9,242.3,115.9z M376.8,117.9
	c-0.2,0.3-0.5,0.7-0.7,1c-0.6,1-1.5,1.3-2.6,1.1c-1.6-0.3-3.2-0.6-4.8-0.9c-11.3-2.1-22.6-3.5-34.1-4.2c-9.9-0.6-19.7-0.4-29.5,0.3
	c-3.9,0.3-7.8,0.8-11.7,1.1c-0.7,0.1-1.4,0.1-2.1,0.1c-0.8,0-1.4-0.2-1.9-0.8c-0.8-0.9-1.6-1.8-2.3-2.8c-3.2-4.8-6.4-9.5-9.5-14.3
	c-0.2-0.3-0.5-0.7-0.5-1.1c0-0.5,0.1-0.9,0.3-1.4c0-0.2,0.3-0.3,0.5-0.4c2.8-2,5.5-4,8.3-6c0.2-0.1,0.6-0.2,1-0.3
	c0.6,0.6,1.3,1.2,1.8,1.9c3,3.3,6,6.5,8.9,9.9c1.8,2,3.8,3,6.5,3.3c11.5,1.3,23.1,1.4,34.6,1.1c7.9-0.2,15.9-0.8,23.8-1.7
	c1.9-0.2,3.8-0.4,5.7-0.6c1.9-0.2,3.1-1.2,4-2.8c1.6-3,3.3-6,5-8.9c0.4-0.8,0.9-1.5,1.4-2.3c1.5,0.2,2.5,1.2,3.6,1.8
	c1.2,0.7,2.5,1.4,3.7,2.1c1.1,0.7,2.5,0.9,3.2,2.4c-0.3,0.7-0.5,1.5-0.8,2.2C385.2,104.6,381.3,111.4,376.8,117.9z M221.2,101.1
	c0.3-8,0.8-16.1,1.6-24.1c0.9-9.2,4.9-16.9,12-22.9c1.5-1.2,2.8-2.6,4.3-3.8c0.4-0.4,0.9-0.7,1.9-1.4c-0.1,3.8-0.2,6.9-0.3,10
	c-0.2,6-0.4,12-0.5,18.1c-0.1,16.7-0.1,33.4-0.2,50.1c0,0.6,0,1.2-0.1,1.8c-0.1,1.5-0.8,2.7-2.1,3.5c-0.3,0.2-0.7,0.4-1,0.6
	c-5.3,2.8-10.2,6-14.7,9.9c-0.3,0.2-0.6,0.4-0.9,0.5c-0.2-0.2-0.3-0.3-0.3-0.3c-0.1-1.8-0.2-3.6-0.2-5.4
	C220.5,125.4,220.7,113.2,221.2,101.1z M208.5,164.1c0.3-0.6,0.7-1.2,1-1.8c7.7-12.5,17.9-22.1,31-28.7c9.3-4.7,19.1-8,29.2-10.4
	c11-2.6,22.1-4.5,33.3-5.5c7.5-0.7,15.1-0.8,22.6-0.5c6.4,0.3,12.9,0.5,19.3,1.1c10.9,1,21.8,2.7,32.5,5.1
	c27.3,6.2,52.9,16.6,76.8,31.3c5.2,3.2,9,7.6,12.1,12.8c0.1,0.1,0,0.4,0.1,0.9c-2.3,0.3-4.4-0.1-6.4-0.6c-9-2.2-18-4.4-27-6.5
	c-4.9-1.2-9.8-2.3-14.7-3.2c-5.5-1-10.7-2.7-15.9-4.6c-14-5.4-28.4-9.6-43.1-12.6c-7.9-1.7-15.9-2.7-23.9-3.5
	c-8.5-0.9-17-1.4-25.6-1c-13.7,0.6-27.3,1.9-40.6,5.4c-8.1,2.1-16,4.9-23.4,8.8c-5.4,2.8-10.3,6.2-14.8,10.4c-1.4,1.3-3,2.2-5,2.6
	c-5,1.2-10,2.5-14.9,3.7c-0.9,0.2-1.8,0.5-2.5-0.3C207.9,166,208.1,165,208.5,164.1z M394.7,153.2c0,0.1-0.1,0.3-0.2,0.5
	c-0.5,0-1,0-1.5-0.1c-4.9-0.7-9.7-1.5-14.6-2.2c-7.2-1-14.4-1.7-21.6-2.7c-8.2-1.1-16.4-1.8-24.7-1.8c-6.2,0-12.5-0.1-18.7,0.3
	c-6.7,0.4-13.4,1.1-20.1,1.9c-11.3,1.4-22.5,3.3-33.6,5.8c-8,1.8-16,3.8-24.1,5.6c-0.5,0.1-0.9,0.2-2,0.5c0.7-0.8,1-1.3,1.4-1.6
	c5.7-4.5,12-8,18.9-10.6c10-3.8,20.3-6.3,30.9-8c12.9-2,25.8-2.5,38.8-2.1c16.2,0.5,32,3.1,47.6,7.3c6.6,1.8,13.1,3.8,19.7,5.8
	C392.3,152.3,393.5,152.8,394.7,153.2z M198.6,235.3c-1.9-1.9-3.7-4-5.4-6.1c-3.7-4.6-4-9.5-1.4-14.7c1.8-3.5,3.9-6.8,6.3-9.9
	c4.1-5.2,8.7-10,13.6-14.6c0.7-0.7,1.4-1.4,2-2.2c0.7-0.9,0.7-1.9,0-2.8c-0.5-0.7-1.2-1.4-1.9-1.9c-3.9-3.4-7.4-7.1-10.8-10.9
	c-0.3-0.4-0.6-0.8-0.9-1.2c-0.1-0.1-0.1-0.4-0.1-0.7c0.8-0.9,1.9-1.1,3-0.7c1,0.3,2.1,0.8,3,1.4c5.6,3.4,11.1,6.9,16.7,10.4
	c0.7,0.4,1.3,0.9,1.9,1.4c1.3,1.1,2,2.5,1.9,4.2c-0.1,1.2-0.1,2.4-0.1,3.6c-0.2,7.2,0.8,14.2,2.3,21.3c0.4,1.9,0.7,3.7,1.2,6.1
	c-1-0.3-1.5-0.5-2-0.6c-4.7-1.1-8.8,1.8-9.2,6.6c-0.4,4.1,0,8.2,0.9,12.3c1.5,6.6,4.1,12.8,7.6,18.7c0.2,0.3,0.5,0.7,0.6,1
	c0.1,0.1,0,0.5-0.1,0.5c-0.2,0.2-0.5,0.4-0.8,0.3c-0.4-0.1-0.8-0.3-1.1-0.5C216.2,250,206.8,243.4,198.6,235.3z M229.3,233.9
	c0.7,1.3,1.5,2.6,2.3,3.9c1.9,3.4,2.9,7.1,3.3,10.9c0.3,2.6,1.1,4.9,2.5,7c1.5,2.2,2.5,4.6,3,7.2c0.1,0.5,0,1.1,0,1.8
	c-1.2,0-1.9-0.9-2.6-1.5c-6.3-5.2-10.7-11.7-13.5-19.3c-2-5.5-3.1-11.2-3.4-17.1c-0.1-1.3,0.1-2.6,0.5-3.9c1.2-3.5,5-4.5,7.8-2.1
	c1,0.9,1.7,2,2.1,3.3c0.2,0.7,0.4,1.3,0.6,2c0.6,2.7,1.3,5.4,2,8.6c-0.7-0.5-1.1-0.7-1.5-1c-0.8-0.6-1.5-1.3-2.3-1.9
	c-0.2-0.2-0.6-0.2-0.8-0.2s-0.3,0.2-0.6,0.4C228.7,232.7,228.9,233.4,229.3,233.9z M223,269.2c-2.5-1.3-4.8-3-7.1-4.5
	c-0.2-0.2-0.4-0.5-0.7-0.9c0.5-0.4,1-0.9,1.6-1.2c2.9-1.5,6-2.3,9.1-3c4.2-1,3-1.5,6.1,1.7c2.3,2.4,4.8,4.6,7.7,6.2
	c1.3,0.8,2.1,1.7,2.4,3.2c0.5,2.5,1.1,4.9,1.7,7.3c0.1,0.5,0.1,1,0.2,2C236.6,276.4,229.7,272.9,223,269.2z M292.9,328
	c-12.1-6.3-23.4-13.9-33.8-22.6c-2-1.7-3.9-3.5-5.5-5.6c-2.4-3.2-3.9-6.8-4.8-10.7c-4.1-17.4-8.1-34.9-12.2-52.3
	c-2.2-9.4-4.4-18.8-6.2-28.3c-1.3-6.4-2-12.9-1.6-19.5c0.2-3.6,0.3-7.3,0.8-10.8c0.5-3.6,1.3-7.1,2-10.7c0.4-1.7,0.9-3.3,1.3-4.9
	c13.7-4.3,51.7-11.9,58.1-11.8c-0.1,0.4-0.2,0.8-0.4,1.1c-4.5,9.4-8.2,19-11.4,28.9c-0.2,0.6-0.3,1.2-0.4,1.8
	c-0.1,1.8,1.1,3.1,2.9,3.2c1.2,0.1,2.1-0.4,3.1-0.9c5.7-2.8,11.2-6,16.5-9.5c0.8-0.5,1.7-1.1,2.7-1.7c0.8,0.9,0.9,1.9,1.1,2.8
	c1.4,6.4,2.9,12.7,4.9,19c1.1,3.6,2.3,7.1,4.4,10.2c0.6,1,1.4,2,2.2,2.9c1.2,1.1,2.5,1.3,3.9,0.4c0.8-0.5,1.6-1.2,2.3-1.9
	c3.8-3.6,7.1-7.7,10.2-11.9c8.8-12.1,17-24.7,24.9-37.4c1.5-2.4,3-4.8,4.5-7.2c0.8,0.1,1.5,0.1,2.2,0.3c18,4.2,36,8.4,54,12.7
	c1.5,0.3,2.9,0.8,4.3,1.4c4.5,1.8,7.8,4.9,10,9.2c2,4.1,3.4,8.4,4.3,12.8c2,9.1,2.9,18.3,2.6,27.6c0,1.6-0.3,3.2-0.5,4.8
	c-0.1,0.7-0.2,1.4,0,2.1c0.1,0.5,0.7,1,1.2,1.2c0.6,0.3,1.2,0,1.6-0.5c0.3-0.4,0.5-0.9,0.8-1.3c1.6-2.1,3.1-4.2,4.9-6.1
	c2-2.2,4.5-3.7,7.4-4.5c4.4-1.3,8.6,0,11.2,3.8c1,1.4,1.8,2.9,2.3,4.5c0.9,2.7,1.4,5.5,1.2,8.3c-0.4,6.8-1.3,13.6-3.3,20.2
	c-2.8,9.6-8.7,16.6-17.5,21.3c-2.5,1.3-5.1,2.5-7.8,3.2c-2.5,0.7-4.8,0.4-7-0.9c-0.3-0.2-0.7-0.4-1.1-0.6c-0.6-0.3-1.2-0.1-1.6,0.5
	c-0.3,0.4-0.4,0.9-0.6,1.4c-1.5,3.6-3.1,7.2-4.7,10.8c-3.3,7.3-7.4,14.1-12.7,20c-5.4,6-11.6,10.8-18.8,14.4
	c-5.3,2.7-10.6,5.3-15.9,8c-1.6,0.8-3.3,1.5-5,2.1c-10.6,4.1-21.4,7.8-32.5,10.3c-5.1,1.1-10.3,1.8-15.6,1.6c-2.5-0.1-5-0.6-7.4-1.1
	C309.2,336.2,301,332.2,292.9,328z M301.3,362.8c1.7-1.9,3.5-3.6,5.4-5.2c1.1-1,1.9-2.1,2.4-3.4c1.4-3.6,1.7-7.2,0.9-11
	c-0.2-1-0.4-2.1-0.7-3.4c0.7,0.3,1.2,0.4,1.7,0.6c5.7,2.7,11.7,3.4,17.9,3.1c8.2-0.4,16.1-2.1,23.9-4.6c8-2.7,16-5.4,23.8-8.5
	c0.7-0.3,1.5-0.5,2.4-0.8c0.1,0.8,0.2,1.4,0.2,1.9c0,2.2-0.1,4.4,0,6.6c0.1,2.6,0.3,5.2,0.7,7.8c0.5,3.6,2.5,6.3,6,7.7
	c3.8,1.6,7.6,3.2,11.4,4.8c0.8,0.4,1.6,0.8,2.6,1.3c-0.5,0.7-0.9,1.3-1.4,1.7c-6.7,6.6-14.2,12.1-22.8,16.1c-8.8,4.1-18,7-27.5,8.7
	c-3.7,0.6-7.3,1.4-11,2c-1.1,0.2-2.2,0.2-3.3,0.3c-2.5,0.2-4.8-0.3-7-1.4c-4.4-2-8.6-4.4-12.6-7.2c-2.7-1.9-5.4-3.9-8-5.9
	c-2-1.5-3.8-3.3-5.3-5.3C299.2,366.4,299.2,365.2,301.3,362.8z M288.3,363.3c3-2.6,6.4-4,11-3.3c-0.5,1.2-0.9,2-1.2,2.8
	c-1.2,2.6-0.9,5.1,0.9,7.4c1.1,1.4,2.3,2.7,3.6,4.3c-0.7,0.6-1.5,0.7-2.2,0.9c-5.1,1.3-9.8,3.5-14.2,6.4c-1.1,0.7-2.1,1.6-3,2.5
	c-0.7,0.7-1.4,1.2-2.3,1.3c-5.9,0.8-11.5,2.8-17.3,4c-0.6,0.1-1.2,0.2-2,0.4c0.2-0.7,0.3-1.2,0.5-1.5c1-2,2.5-3.6,4.1-5.2
	c3.9-4,8.1-7.8,12.4-11.4C281.8,368.9,285,366.1,288.3,363.3z M249.9,376.7c1.1-2.2,3-3.3,5.1-4.4c5.9-3,11.9-5.8,18.2-8
	c3.4-1.2,6.9-1.5,10.4-1.3c0.2,0,0.4,0.1,0.5,0.2c0.1,0,0.1,0.2,0.3,0.4c-0.6,0.5-1.1,1-1.7,1.5c-5.6,4.9-11.3,9.7-16.8,14.7
	c-5,4.4-8.1,10-9.3,16.5c-1,5.5-2,11.1-2.8,16.7c-1.6,11.9-2.3,23.8-2.2,35.8c0,1.3,0.1,2.6,0,3.9c0,1.3-0.7,2.2-2,2.7
	c-3.4,1.1-6.8,2.4-10.2,3.6c-0.7,0.3-1.5,0.4-2.5,0.6c-0.1-1.1-0.2-2-0.2-2.9c-0.1-6.2-0.3-12.5-0.3-18.7
	c0.1-10.1,0.3-20.1,1.7-30.1c1-7,2.4-13.9,5.3-20.4c1.6-3.6,3.6-7,6-10.1C249.5,377.2,249.7,377,249.9,376.7z M226.5,395.6
	c0.4-1.2,0.9-2.5,1.6-3.6c1.9-3.3,4.4-6,7.4-8.3c3.8-3,8-5.4,12.3-7.6c0.2-0.1,0.4,0,1-0.1c-0.3,0.6-0.5,1-0.7,1.3
	c-4.8,6.4-7.7,13.6-9.4,21.3c-1.3,5.9-2,11.9-2.5,17.9c-1,12-0.6,23.9-0.6,35.9c0,2.4,0,4.8,0,7.2c-1.7,1.3-11,5.5-15.5,6.9
	c-0.2-0.5-0.4-1.1-0.5-1.6c-0.1-2.4-0.2-4.8-0.3-7.2c-0.3-10.5,0.1-20.9,1.3-31.3C221.6,415.9,223.5,405.6,226.5,395.6z
	 M186.8,478.4c1.8-5.2,3.4-10.5,5.1-15.8c5.2-16.2,10.5-32.3,15.7-48.5c1-3.1,2.2-6,3.9-8.8c2.6-4.4,6.1-8,10.6-10.5
	c0.5-0.3,1.1-0.5,2.1-1c-0.3,1.3-0.4,2-0.5,2.6c-3.6,13-5.7,26.3-6.5,39.8c-0.2,4.3-0.4,8.6-0.5,13c0,2.1-0.4,3.9-1.5,5.7
	c-1.6,2.7-2.9,5.5-4.3,8.3c-1,2-2.2,3.9-3.2,5.8c-0.7,1.2-1.5,2.1-2.8,2.5c-3.9,1.4-5.6,4.3-5.2,8.5c0.3,2.8,0.3,5.6,0.4,8.4
	c0,0.6,0,1.2,0,2c-0.8-0.2-1.4-0.2-1.9-0.5c-1.7-0.9-3.4-1.8-4.9-2.9c-1.9-1.3-3.5-3-5.4-4.4C186.4,481.5,186.2,480.2,186.8,478.4z
	 M215.2,468.4c-2,0.6-4,1.1-5.9,1.6c-0.2-0.2-0.2-0.3-0.3-0.3c0-0.1-0.1-0.2,0-0.3c2.3-4.4,4.7-8.8,7-13.2c0.1-0.1,0.3-0.2,0.7-0.3
	c0,0.7,0.1,1.4,0.1,2c0.1,2.5,0.3,5,0.4,7.5C217.3,467.2,217,467.8,215.2,468.4z M182.5,522.4c-2.5-1.1-4.8-2.9-7.1-4.5
	c-1.5-1-1.9-2.5-1.3-4.3c0.2-0.6,0.4-1.1,0.6-1.7c3.2-8.9,6.4-17.8,9.6-26.6c0.2-0.5,0.5-1,0.9-1.8c0.5,0.4,0.9,0.6,1.3,1
	c3.5,3.6,7.5,6.3,12.1,8.4c0.4,0.2,0.7,0.3,1.1,0.5c1,0.5,1.5,1.2,1.6,2.3c0.2,9.7,2,19.2,3,28.7c0.2,2.1,0.7,4.2,1.1,6.2
	c0.2,1.3,0.2,1.3-0.3,2.9c-1.2,0.4-2.2,0-3.2-0.5c-1.7-0.9-3.4-1.8-5-2.8C192.2,527.4,187.5,524.7,182.5,522.4z M205.7,544.8
	c0,2.5-0.2,5-0.4,7.5c-0.1,0.8-0.3,1.6-0.7,2.2c-3.1,4.7-6.3,9.3-9.4,14c-0.1,0.1-0.3,0.2-0.5,0.3c-0.1-0.1-0.4-0.3-0.4-0.4
	c0-3.3-0.1-6.6,0.5-9.9c0.2-1.2,0.3-2.4,0.3-3.6c0-6.8,0.7-13.6,1.1-20.4c0-0.3,0.1-0.6,0.3-1.2c2.9,1.2,5.2,2.8,7.4,4.5
	c0.8,0.6,1.3,1.5,1.4,2.6C205.5,541.8,205.7,543.3,205.7,544.8z M198.4,637.9c-5.7-7.5-10.3-15.6-13.3-24.6
	c-3.4-10.2-2.4-19.9,3.1-29c3.1-5.2,6.4-10.3,9.7-15.3c2.2-3.4,4.5-6.6,6.8-10c0.5-0.7,1-1.4,1.8-2.5c1.3,1.8,1.7,3.8,3.9,4.8
	c-0.2-0.9-0.2-1.5-0.4-2c-1.1-3.7-1.7-7.5-1.7-11.3c-0.1-3.5-0.1-7-0.1-10.6c0.1-6.9-0.7-13.6-1.8-20.4c-1.2-7.1-2-14.3-2.9-21.5
	c-0.6-4.6-0.9-9.2-1.3-13.8c-0.1-1.1-0.1-2.2-0.1-3.3c0-2.2,1.2-3.6,3.1-4.4c0.6-0.2,1.1-0.4,1.7-0.6c7-1.8,13.8-4.5,20.5-7.2
	s13.5-5.2,20.3-7.8c1.1-0.4,2.3-0.7,3.5-1c2.1-0.4,4,0.3,5.5,1.9c0.5,0.5,0.9,1.1,1.4,1.6c3.8,4.7,6.5,9.9,8.7,15.5
	c0.1,0.2,0,0.4,0,0.6c-0.3,0.5-0.8,0.4-1.3,0.4c-9.7-0.2-19,1.5-28.3,4c-3.5,0.9-7,1.8-10.5,2.7c-1.1,0.3-2.1,0.7-3.1,1.1
	c-0.6,0.2-0.7,0.7-0.5,1.2c0.2,0.6,0.7,0.7,1.2,0.6c1-0.2,2-0.5,2.9-0.8c8.4-2.6,17-4.3,25.6-5.6c2.8-0.4,5.6-0.7,8.4-0.9
	c1.2-0.1,2.4,0,3.6,0c3.6,0.2,6,1.9,7.4,5.3c0.3,0.8,0.7,1.7,0.9,2.6c0.8,4,1.6,8.1,2.3,12.1c0.1,0.9,0,1.8,0,2.9
	c-0.5-0.1-1-0.2-1.3-0.4c-4.2-2.5-8.7-3.2-13.4-2.8c-7.5,0.7-15,1.6-22.4,3.2c-0.6,0.1-1.2,0.3-1.7,0.6c-0.2,0.1-0.3,0.7-0.2,1.1
	c0,0.2,0.3,0.6,0.5,0.6c0.5,0.1,1,0.1,1.5,0c5.8-0.9,11.5-1.8,17.3-2.6c3.4-0.5,6.8-0.8,10.2-0.3c1.7,0.3,3.3,0.7,4.9,1.3
	c2.8,1.1,4.7,3,5.7,5.8c1.9,5.1,3.2,10.4,2.8,15.9c-0.1-0.6-0.1-1.2-0.3-1.7c-0.3-0.6-0.6-1.3-1-1.8c-0.4-0.4-0.9-0.8-1.5-1
	c-0.6-0.3-1.3-0.5-2-0.6c-6.1-1.4-12.4-1.6-18.6-0.7c-2.7,0.4-5.3,1-8,1.7c-0.8,0.2-1.6,0.6-2.6,0.9c0.4,0.4,0.6,0.7,0.8,0.7
	c1.4,0,2.8,0.2,4.2-0.1c5.9-1.3,11.8-1.6,17.7-1.1c1.9,0.2,3.8,0.4,5.7,0.8c2.5,0.5,3.2,1.5,3.1,4c-0.1,5.3-1.2,10.4-3.3,15.3
	c-1.7,4-4,7.7-6.7,11.1c-0.3,0.3-0.6,0.6-0.8,0.8c-0.1,0.1-0.2,0-0.5,0.1c-0.5-1.1-0.3-2.3-0.4-3.4c-0.1-1.3-0.2-2.6-0.2-3.9
	c0-1.2,0.1-2.4,0.2-3.6c0.1-1.2,0.2-2.4,0.3-3.5c-0.6-0.7-1.2-0.5-1.8-0.3c-3.4,0.7-6.9,1.5-10.3,2.2c-1.3,0.3-2.5,0.7-3.7,1.2
	s-2.3,0.6-3.4-0.1c-0.2-0.1-0.6-0.1-0.8-0.1c-0.9,0.6-1,1.5-1.1,2.4c-0.8,3.6-1.6,7.3-2.4,10.9c-0.5,2-1.1,4.1-1.8,6.1
	c-1.7,5-4.2,9.6-7.8,13.5c-1.1,1.2-1.6,2.5-1.4,4.1c0.3,3,0.5,6,0.8,9c0.2,1.8,0.5,3.6,1.5,5.2c1.7,2.5,1.8,5.3,1.3,8.1
	c-0.6,3.2-1,6.3-1,9.6c0,3.5,0.5,6.8,2,10c0.7,1.4,0.5,2.6,0,4c-2.5,6.2-4.9,12.3-7.2,18.6c-0.6,1.6-1.5,2.4-3.1,2.8
	C214.8,649.1,204.3,645.7,198.4,637.9z M215.1,684.5c0.1-0.5,0.1-1.1,0.3-1.7c0.5-1.5,1.1-3,1.6-4.5c3.9-10.5,7.8-21.1,11.8-31.6
	c1.8-4.7,3.8-9.3,5.7-14c0.8-1.9,1.5-3.7,2.3-5.6c0.2-0.5,0.6-1,1-1.6c3,1.7,6,3,9.7,3.5c-0.4,0.6-0.7,1-0.9,1.4
	c-0.7,1.1-1.5,2.1-2.1,3.3c-8,15.1-15.8,30.3-23.3,45.7c-1,2-1.8,4-2.8,6.2C217.2,685.6,216.2,685.1,215.1,684.5z M227.6,686.4
	c-0.2,0.5-0.5,1.1-0.8,1.6c0,0.1-0.2,0.1-0.4,0.3c-2.3-0.1-4.4-1.3-6.8-2.1c0.2-0.8,0.2-1.5,0.5-2.1c1.6-3.5,3.1-7,4.9-10.4
	c6.6-13.1,13.3-26.1,20-39.1c0.5-1,1.1-1.9,1.7-2.9c1.1-1.6,2.6-2.5,4.6-2.3c1.2,0.1,2.4,0.1,3.6,0.2c0.7,0,1.4,0.2,2.1,0.3
	c0.5,1.5-0.1,2.3-0.5,3.2c-1.4,2.9-2.7,5.8-4.3,8.6c-3.1,5.4-6.1,10.8-9.4,16.1C237,667.1,231.9,676.5,227.6,686.4z M443.6,706.3
	c-6.9,0.8-13.8,1.6-20.7,2.3c-1.8,0.2-3.6,0.1-5.4,0.1c-10,0-19.9,0-29.9-0.1c-5.6-0.1-11.3-0.4-16.9-0.7s-9.5-0.6-13.8-0.9
	c-26.7-1.9-26-1.6-33.4-2.3c-8.5-0.8-14.5-1.7-23.9-3.2c-9.9-1.6-19.8-3.4-29.7-5.2c-7.6-1.4-15.2-2.9-22.7-5.1
	c-2.5-0.7-4.9-1.7-7.4-2.5c-1.1-0.3-2.1-0.7-3.2-0.9c-1.7-0.4-3.2-1-4.6-1.7c-0.4-1.3,0.2-2.2,0.6-3.1c2.7-5.9,5.7-11.5,9.1-17
	c3.3-5.4,6.6-10.8,9.8-16.3c0.7-1.2,1.4-2.4,2.2-3.8c3.4,0.7,6.5,1.4,9.5,1.9c6.6,1,13.3,2.1,20,3c7.8,1,15.6,1.9,23.4,2.8
	c8.3,0.9,16.6,1.8,24.9,2.7c8.1,0.8,16.2,1.5,24.4,2.2c3.5,0.3,7,0.5,10.5,0.6c10.7,0.4,21.3,0.7,32,0.9c7.5,0.1,15.1,0,22.6-0.1
	c3.2,0,3.2,0,4.3,3c3.1,7.9,7,15.4,11,22.8c1.6,3,3.1,6.1,4.8,9.1c1.3,2.3,2.9,4.4,4.3,6.5c0.8,1.2,1.9,2.3,2.5,3.8
	C446.6,706,445.1,706.2,443.6,706.3z M457.4,708.6c-0.5,0-1,0.1-1.5-0.1c-0.5-0.1-0.9-0.4-1.2-0.8c-0.6-0.6-1.1-1.2-1.6-1.8
	c-8.7-10.7-15.7-22.4-21.5-34.9c-6-13-10.8-26.5-15-40.1c-0.1-0.4-0.2-0.8-0.3-1.2c0-0.1,0.1-0.2,0.2-0.4c1.3-0.1,2.2,0.4,2.7,1.7
	c1.5,3.5,3.1,7,4.7,10.5c5.7,12.5,12,24.8,18.6,36.9c5.4,9.7,11.6,18.9,18.8,27.3c0.6,0.7,1.1,1.4,2,2.6
	C461,708.8,459.2,708.6,457.4,708.6z M478.2,708.4c-0.7,0.1-1.1,0.3-1.4,0.3c-3.4,0-6.8,0-10.3,0c-1.1,0-1.9-0.4-2.6-1.3
	c-6.2-7.4-12.2-15-17-23.4c-7.7-13.2-14.6-26.8-21.1-40.7c-1.7-3.7-3.3-7.3-5-11c-0.3-0.6-0.5-1.3-0.8-2.2c3,0.1,5.8,0.2,8.6,0.2
	c2.9,0,5.5-1,8.2-2.2C447.3,656.7,461.1,683.1,478.2,708.4z M524.8,592.1c5.5,7.8,7.7,16.5,7.2,26c-0.4,6.9-1.5,13.8-3.5,20.5
	c-2.3,7.6-6.1,14.5-11.8,20.1c-0.7,0.7-1.5,1.4-2.3,2c-5.9,4.8-12.5,6-19.8,3.9c-3.3-1-6.4-2.5-9.3-4.3
	c-9.7-6.3-17.2-14.4-22.2-24.9c-7.4-15.3-14.2-30.9-19.3-47.2c-0.8-2.6-2.3-4.3-4.9-5.3c-6.4-2.5-11.7-6.6-16.5-11.5
	c-3-3-4.8-6.7-5.6-10.8c-1.2-6.7-1.7-13.4-1.2-20.1c0.1-2,0.4-4,0.8-6c0.3-1.5-0.3-2.5-1.5-3.2c-2.1-1.3-4.2-2.8-6.3-4.1
	c-2.1-1.2-4.2-2.3-6.4-3.4c-0.7-0.4-1.5-0.6-2.3-0.7c-1-0.2-1.8,0.3-2.2,1.2c-0.4,0.9-0.7,1.9-0.9,2.9c-0.7,3.6-1.4,7.3-2.1,11.5
	c-0.9-0.7-1.6-1-1.9-1.5c-2.2-3.5-4.6-6.9-5.6-10.9c-1-3.9-0.9-7.8,0.2-11.6c1-3.5,2.6-6.8,4.6-9.8c1.8-2.7,3.6-3.4,6.7-2.6
	c4.4,1,8.7,2.3,13,4c1,0.4,2.1,0.7,3.1,1c0.4,0.1,0.9,0,1.4-0.1c0.1-0.8-0.4-1-0.8-1.3c-2.4-1.5-5-2.7-7.7-3.5
	c-2.8-0.9-5.6-1.7-8.4-2.5c-3.3-0.9-6.1-0.1-8.4,2.5c-0.5,0.5-1,1-1.4,1.5c-0.8-0.1-0.8-0.7-0.8-1.1c0.1-1.3,0.1-2.6,0.4-3.9
	c1.1-4.4,2.8-8.6,4.9-12.6c1.8-3.3,3.3-4,6.9-2.9c4.8,1.5,9.5,3.2,14.2,5c4.9,1.9,9.7,4,14.3,6.4c1.7,0.9,3.5,1.4,5.3,2
	c0.3,0.1,0.8,0.1,1.5,0.1c-1.8-2-3.5-3.3-5.5-4.2c-8.5-4.1-17.1-8.1-26.2-10.8c-2.5-0.8-5-1.5-7.8-1.5c0.1-0.6,0.1-1.2,0.3-1.5
	c1.4-2.7,3.1-5.2,5.1-7.4c3.1-3.4,6.9-4.8,11.4-3.6c2.3,0.6,4.7,1.3,6.9,2.2c6.7,2.8,13.3,5.8,19.5,9.5c3.6,2.1,7.5,3.4,11.6,3.9
	c1.5,0.2,3,0.1,4.9,0.2c-0.4-0.6-0.5-1.1-0.8-1.1c-1.2-0.3-2.4-0.5-3.5-0.9c-5-1.5-9.9-3.3-14.4-6c-6.7-4-13.8-7-21.1-9.6
	c-0.9-0.3-1.7-0.6-2.6-0.8c-4.8-1-9-0.1-12.5,3.4c-1.7,1.7-3.1,3.7-4.6,5.6c-0.6,0.8-1.2,1.5-2,2.7c0-0.8-0.1-1.1,0-1.3
	c1.7-4.2,3.3-8.4,5-12.6c0.7-1.6,1.6-3,2.4-4.5c2.5-4.3,6.1-7.4,10.1-10.2c1.5-1,3-1.1,4.5-0.2c0.2,0.1,0.3,0.2,0.5,0.3
	c9.9,6.1,19.9,11.8,29.4,18.5c4.2,3,8.2,6.2,12.3,9.3c0.7,0.5,1.4,1.2,2.1,1.8c3.3,2.9,4.5,6.6,4,10.8c-0.9,7.1-1.8,14.2-2.6,21.3
	c-0.8,7.3-1.4,14.6-2,21.9c-0.5,5.8-0.9,11.6-1.3,17.5c-0.3,4.4-1.6,8.5-3.5,12.4c-1.2,2.4-2.4,4.8-3.7,7.2c1.1,1.2,1.5,1.2,2.1,0.3
	c0.3-0.4,0.6-0.8,0.8-1.3c2.2-4.3,4.6-8.5,5.9-13.2c0.1-0.5,0.3-1,0.5-1.6c0.7,0.5,1.4,1,2,1.5c4.4,3.7,9.1,7,14.1,9.8
	c10,5.6,20.1,11.1,30.1,16.6c2.3,1.2,4.7,2.2,7.1,3.3c0.9,0.4,1.8,0.8,2.7,1.3C520.6,587.2,522.9,589.4,524.8,592.1z M521.7,584.9
	c-0.4-0.1-0.8-0.1-1.1-0.3c-4.3-2.2-8.6-4.4-12.9-6.5c-4.3-2.1-8.6-4.3-12.7-7c-5.5-3.6-11.2-6.8-17-9.8c-0.9-0.5-1.7-1-2.6-1.5
	c-0.1-0.1-0.2-0.3-0.3-0.7c0.9-0.8,2-0.7,3-0.8c3.3-0.3,6.6-0.6,9.9-1c5.8-0.7,11.4-2.2,17.1-3.6c1.8-0.4,3.5-0.9,5.3-1.3
	c0.8-0.2,1.6-0.3,2.3-0.4C515.2,556.7,521.5,579.7,521.7,584.9z M543.3,537.4c-0.9,0.4-1.8,0.8-2.8,1.2c-8.5,3.3-17,6.7-25.6,9.8
	c-3.4,1.2-7,2-10.5,2.7c-9.8,2.1-19.8,3.6-29.8,4.7c-1.6,0.2-3.1,0-4.4-0.7c-2.4-1.3-4.7-2.7-7-4.1c-1-0.6-1.3-1.5-1.3-2.6
	c0.1-1.1,0.2-2.2,0.3-3.3c0.2-2.2,0.5-4.4,0.4-6.6c-0.1-3,0.4-6,0.9-9c0.5-2.6,0.9-5.2,0.9-7.8c0.2-6.3,1.1-12.6,1.7-18.9
	c0.1-0.5,0.2-1,0.4-1.8c1.2-0.1,2.2-0.3,3.2-0.4c20.2-1.2,39.8-5.3,59-11.5c0.8-0.2,1.5-0.4,2.4-0.6c0.3,0.7,0.5,1.2,0.7,1.8
	c4.4,12.4,8.9,24.8,13.3,37.2c0.4,1.1,0.8,2.3,1.2,3.4C547.3,534.2,546.5,535.9,543.3,537.4z M393,215.5c-0.1-4.4-1.5-8.5-3.9-12.2
	c-0.6-0.9-1.1-1.6-2.2-2c-2.6-0.9-4.5-0.4-6.2,1.7c-1.4,1.7-2.1,3.6-2.7,5.7c-2,7.5-2.4,15.1-1.7,22.7c0.4,3.8,1.1,7.6,2.3,11.2
	c0.5,1.5,1.2,3,2,4.3c2.6,3.8,5.8,3.7,8.3-0.2c0.7-1.2,1.4-2.5,1.7-3.8c0.7-2.6,1.3-5.3,1.8-7.9c0.8-4,0.5-8,0.5-12
	C393,220.5,393.1,218,393,215.5z M385.2,205.1c1.7,0.2,2.6,1.1,2.9,2.5c0.5,2.4,1,4.9,1.3,7.4c0.2,1.7-0.3,3.4-1,4.9
	c-1,2.2-3.5,1.7-4.4,0.4c-0.2-0.2-0.3-0.5-0.5-0.8C381.1,215.2,381.8,209.2,385.2,205.1z M379.7,214c0.4,3.3,1.3,6.1,2.9,8.7
	c0.3,0.5,0.4,1.1,0.5,1.7c0.2,1.8,0,3.6-0.3,5.4c-1.7,0.2-2.7-0.9-3.8-1.4C378.2,224.3,378.6,217.7,379.7,214z M388.1,243.4
	c-0.3,0.8-0.7,1.7-1.2,2.4c-1.2,2-2.9,2-4.2,0c-0.4-0.7-0.8-1.4-1.1-2.1c-1.2-2.6-1.9-5.3-2.3-8.1c-0.3-1.8-0.4-3.5-0.7-5.5
	c0.5-0.1,0.6-0.1,0.7-0.1c1.1,0.5,2.2,0.9,3.4,1.4c0.2,1,0.4,2,0.7,2.9c0.3,1.1,1,1.6,1.9,1.6c1,0,1.6-0.5,1.9-1.6
	c0.2-0.8,0.3-1.6,0.4-2.4c0.1-0.4,0.2-0.8,0.3-1.3c0.8-0.1,1.5-0.2,2.2-0.3c0.2,0.3,0.3,0.5,0.3,0.7
	C390.3,235.2,389.7,239.4,388.1,243.4z M390.7,227.2c0,1.7-0.1,1.7-2.3,1.8c-0.2-1.6-0.5-3.1-0.5-4.7c0-1.5,1.1-2.2,2.2-2.7
	c0.7,0.2,0.6,0.7,0.6,1C390.7,224.2,390.7,225.7,390.7,227.2z"/>
</svg>
