<?xml version="1.0" encoding="utf-8"?>
<!-- Generator: Adobe Illustrator 24.0.2, SVG Export Plug-In . SVG Version: 6.00 Build 0)  -->
<svg version="1.1" id="Capa_1" xmlns="http://www.w3.org/2000/svg" xmlns:xlink="http://www.w3.org/1999/xlink" x="0px" y="0px"
	 viewBox="0 0 1000 1000" style="enable-background:new 0 0 1000 1000;" xml:space="preserve">
<style type="text/css">
	.st0{fill:#151514;}
	.st1{fill:#FFFFFF;}
	.st2{fill:#CF0810;}
</style>
<g>
	<path class="st0" d="M788.2,607.6c-3.7-28.3-14.5-57.3-32.2-86.2l-7.6-12.4h-0.8c-11-15-24.8-29.2-41.3-42.4v0l-5-4
		c21.8-17.6,37.8-35.9,48.6-55.3c15.5-27.8,22.8-55,21.9-80.7c-0.9-24.2-6.1-46.8-15.2-67.1c-8.8-19.4-17.5-34.3-26.5-45.6
		c-12.4-15.4-12.6-15.6-14-17c-1.3-1.3-2.4-2.4-21-17.5c-13.6-11.1-33.4-22.1-60.3-33.6c-27.1-11.6-59.4-18.8-96-21.4
		c-6.1-0.4-12.4-0.7-18.7-0.7c-32.2,0-68.8,5.7-109,16.9c-47.9,13.4-100.1,39.8-155.1,78.5l-18.8,13.3l103.9,193l23.9-16.6
		c14.4-10,27.7-18.3,39.8-25.1l-6.3,97.9l-3.3,51.5l-1.4,21.6c-4.5-3.1-9.1-6.4-13.8-9.8l-21.4-15.4l-149.1,213l22,14.8
		c62.5,42,119.5,72.2,169.6,89.8c50.4,17.8,95.7,27.5,134.5,28.9c4.6,0.2,9.3,0.3,13.7,0.3c34,0,64.2-5,89.6-14.9
		c27.9-10.9,51.1-23.6,69-37.8c17.8-14.2,34.9-33,50.8-56l1.1-1.5l0.8-1.7c0.5-0.9,1.1-2.1,9.4-20.9c6.3-14.1,11.6-32.7,16.3-56.9
		C791.2,661.8,791.8,635.3,788.2,607.6z M423,569.3c14.5-1.4,27.6-2.1,39.1-2.1c13.6,0,25,1,34,2.8c20.1,4.2,26.6,9.2,28,10.6
		c2.3,2.3,5.2,5.7,5.6,8.8c0.8,6.5-0.1,9-0.1,9c-0.5,1.5-1.1,2.8-1.5,4.1c-4.1,3.2-8.5,4.8-13.7,5.1c-0.6,0-1.2,0.1-1.9,0.1
		c-6.9,0-20.2-1.8-44.2-10.7c-14.1-5.1-31.4-14.2-51.7-27.1L423,569.3z M445.1,365.9c17.1-4.9,31-7.4,41.3-7.4
		c1.7,0,3.3,0.1,4.7,0.2c6.6,0.6,12.7,3.3,18.6,8c1,2.5,1.4,4.3,1.6,5.4c-1.7,1.2-5.3,3.2-12.2,5.5c-4.6,1.5-13.9,3.4-31.9,3.4
		c-10.2,0-22.1-0.6-35.5-1.8l-16-1.4C426.6,372.4,436.4,368.4,445.1,365.9z"/>
	<path class="st1" d="M760.8,681.6c-4.3,22.1-9.2,39.2-14.6,51.3c-5.4,12.1-8.3,18.7-8.9,19.8c-14.6,21-29.8,37.8-45.7,50.5
		c-15.9,12.7-36.6,24-62.2,33.9c-25.6,10-56.6,14.3-93,12.9c-36.4-1.4-78.7-10.5-126.9-27.5c-48.2-17-102.8-45.9-163.7-86.9
		l118.8-169.7c38.8,28,70.3,46.5,94.5,55.4c24.2,8.9,43.1,12.9,56.6,12.1c13.5-0.8,25.1-6.3,34.7-16.6c0-0.5,1.1-3.6,3.2-9.3
		c2.1-5.6,2.7-12.8,1.6-21.4c-1.1-8.6-5.5-16.7-13.3-24.2c-7.8-7.5-21.4-13.3-40.8-17.4c-19.4-4.1-46.3-4.4-80.8-1.2l0.5-8.4h158.5
		c11,20.9,32.8,35.1,58.1,35.1c25.2,0,47.1-14.2,58.1-35.1h38.1c15.8,25.8,25.3,51.1,28.5,75.9C765.7,636,765.1,659.5,760.8,681.6z"
		/>
	<path class="st2" d="M727.3,394.7c-10.6,19.1-28.2,37.7-52.7,55.7c-10.5-7.2-23.2-11.4-36.9-11.4c-30.1,0-55.4,20.3-63.2,47.9
		H424.2l5.2-81.8c36.6,3.2,62.6,2.3,78-2.8c15.4-5.1,24.8-11.6,28.3-19.4c3.5-7.8,2-18.5-4.4-31.9c-11.3-10.8-23.8-16.8-37.6-18.2
		c-13.7-1.4-32.3,1.4-55.8,8.1c-23.4,6.7-52.7,22.2-87.7,46.5L271,240.3c52.8-37.2,101.8-62.1,147.1-74.7
		c45.3-12.7,84.9-17.8,118.8-15.4c33.9,2.4,63.2,8.9,87.7,19.4c24.5,10.5,42.5,20.5,54.2,29.9c11.6,9.4,17.9,14.7,19,15.7
		c0.5,0.5,4.6,5.5,12.1,14.9c7.5,9.4,15.2,22.8,23,40c7.8,17.3,12.1,36.4,12.9,57.4C746.7,348.6,740.5,371,727.3,394.7z"/>
	<path class="st1" d="M682.8,504.6c0,24.9-20.2,45.1-45.1,45.1c-24.9,0-45.1-20.2-45.1-45.1c0-24.9,20.2-45.1,45.1-45.1
		C662.6,459.5,682.8,479.7,682.8,504.6z"/>
</g>
</svg>
