<?xml version="1.0" encoding="utf-8"?>
<!-- Generator: Adobe Illustrator 24.0.2, SVG Export Plug-In . SVG Version: 6.00 Build 0)  -->
<svg version="1.1" id="Capa_1" xmlns="http://www.w3.org/2000/svg" xmlns:xlink="http://www.w3.org/1999/xlink" x="0px" y="0px"
	 viewBox="0 0 1000 1000" style="enable-background:new 0 0 1000 1000;" xml:space="preserve">
<style type="text/css">
	.st0{fill:#151514;}
	.st1{fill:#FFFFFF;}
	.st2{fill:#CF0810;}
</style>
<g>
	<polygon class="st0" points="722.3,131.5 707.3,463 704.1,535.1 689,868.5 440.4,852.6 438.7,535.1 438.5,508.7 438.4,483.1 
		438.3,458.9 438.1,431 388,473.3 277.7,331.5 460.5,158 	"/>
	<path class="st1" d="M679.2,509.1l-15,331.8l-198-12.7l-1.7-319.1H508c8.7,26.1,33.2,44.9,62.2,44.9c29,0,53.6-18.8,62.2-44.9
		H679.2z"/>
	<path class="st2" d="M695,160.4l-13.5,298h-53c-10.9-21.1-32.9-35.5-58.3-35.5c-25.4,0-47.4,14.4-58.2,35.5h-47.7l-0.4-83
		L391.9,436l-79.2-101.8L471.9,183L695,160.4z"/>
	<path class="st1" d="M615.3,488.4c0,24.9-20.2,45.1-45.1,45.1c-24.9,0-45.1-20.2-45.1-45.1c0-24.9,20.2-45.1,45.1-45.1
		C595.1,443.3,615.3,463.5,615.3,488.4z"/>
</g>
</svg>
